<svg width="104" height="134" viewBox="0 0 104 134" fill="none" xmlns="http://www.w3.org/2000/svg">
<path d="M2 60.5C10.5915 60.5 24 60.5 24 60.5M102 60.5L74 60.5M2 111.5H102M24 60.5C26.3333 43.3333 46 13.7 102 30.5M24 60.5L74 60.5M74 60.5C75.5 42.3333 65.5 -4.85778e-06 22 2M12 132H92C97.5228 132 102 127.523 102 122V12C102 6.47715 97.5228 2 92 2H12C6.47715 2 2 6.47715 2 12V122C2 127.523 6.47716 132 12 132Z" stroke="black" stroke-width="3" stroke-linejoin="round"/>
<path d="M14.042 91V81.0469H17.4531C18.5788 81.0469 19.4355 81.2725 20.0234 81.7236C20.6113 82.1748 20.9053 82.847 20.9053 83.7402C20.9053 84.196 20.7822 84.6061 20.5361 84.9707C20.29 85.3353 19.93 85.6178 19.4561 85.8184C19.9938 85.9642 20.4085 86.2399 20.7002 86.6455C20.9964 87.0465 21.1445 87.5296 21.1445 88.0947C21.1445 89.029 20.8438 89.7467 20.2422 90.248C19.6452 90.7493 18.7884 91 17.6719 91H14.042ZM15.7715 86.5088V89.6191H17.6924C18.2347 89.6191 18.6585 89.4847 18.9639 89.2158C19.2692 88.9469 19.4219 88.5732 19.4219 88.0947C19.4219 87.0602 18.8932 86.5316 17.8359 86.5088H15.7715ZM15.7715 85.2373H17.4668C18.0046 85.2373 18.4238 85.1165 18.7246 84.875C19.0299 84.6289 19.1826 84.2826 19.1826 83.8359C19.1826 83.3438 19.0413 82.9883 18.7588 82.7695C18.4808 82.5508 18.0456 82.4414 17.4531 82.4414H15.7715V85.2373ZM30.8174 86.2832C30.8174 87.2585 30.6488 88.1152 30.3115 88.8535C29.9743 89.5872 29.4912 90.1523 28.8623 90.5488C28.238 90.9408 27.5179 91.1367 26.7021 91.1367C25.8955 91.1367 25.1755 90.9408 24.542 90.5488C23.9131 90.1523 23.4255 89.5895 23.0791 88.8604C22.7373 88.1312 22.5641 87.2904 22.5596 86.3379V85.7773C22.5596 84.8066 22.7305 83.9499 23.0723 83.207C23.4186 82.4642 23.904 81.8968 24.5283 81.5049C25.1572 81.1084 25.8773 80.9102 26.6885 80.9102C27.4997 80.9102 28.2174 81.1061 28.8418 81.498C29.4707 81.8854 29.9561 82.446 30.2979 83.1797C30.6396 83.9089 30.8128 84.7588 30.8174 85.7295V86.2832ZM29.0879 85.7637C29.0879 84.6608 28.8783 83.8154 28.459 83.2275C28.0443 82.6396 27.4541 82.3457 26.6885 82.3457C25.9411 82.3457 25.3555 82.6396 24.9316 83.2275C24.5124 83.8109 24.2982 84.638 24.2891 85.709V86.2832C24.2891 87.377 24.501 88.2223 24.9248 88.8193C25.3532 89.4163 25.9456 89.7148 26.7021 89.7148C27.4678 89.7148 28.0557 89.4232 28.4658 88.8398C28.8805 88.2565 29.0879 87.4043 29.0879 86.2832V85.7637ZM40.4834 86.2832C40.4834 87.2585 40.3148 88.1152 39.9775 88.8535C39.6403 89.5872 39.1572 90.1523 38.5283 90.5488C37.904 90.9408 37.1839 91.1367 36.3682 91.1367C35.5615 91.1367 34.8415 90.9408 34.208 90.5488C33.5791 90.1523 33.0915 89.5895 32.7451 88.8604C32.4033 88.1312 32.2301 87.2904 32.2256 86.3379V85.7773C32.2256 84.8066 32.3965 83.9499 32.7383 83.207C33.0846 82.4642 33.57 81.8968 34.1943 81.5049C34.8232 81.1084 35.5433 80.9102 36.3545 80.9102C37.1657 80.9102 37.8835 81.1061 38.5078 81.498C39.1367 81.8854 39.6221 82.446 39.9639 83.1797C40.3057 83.9089 40.4788 84.7588 40.4834 85.7295V86.2832ZM38.7539 85.7637C38.7539 84.6608 38.5443 83.8154 38.125 83.2275C37.7103 82.6396 37.1201 82.3457 36.3545 82.3457C35.6071 82.3457 35.0215 82.6396 34.5977 83.2275C34.1784 83.8109 33.9642 84.638 33.9551 85.709V86.2832C33.9551 87.377 34.167 88.2223 34.5908 88.8193C35.0192 89.4163 35.6117 89.7148 36.3682 89.7148C37.1338 89.7148 37.7217 89.4232 38.1318 88.8398C38.5465 88.2565 38.7539 87.4043 38.7539 86.2832V85.7637ZM48.8096 82.4414H45.7061V91H43.9902V82.4414H40.9141V81.0469H48.8096V82.4414ZM55.2148 88.4365C55.2148 87.999 55.0599 87.6618 54.75 87.4248C54.4447 87.1878 53.891 86.9486 53.0889 86.707C52.2868 86.4655 51.6488 86.1966 51.1748 85.9004C50.2679 85.3307 49.8145 84.5879 49.8145 83.6719C49.8145 82.8698 50.1403 82.209 50.792 81.6895C51.4482 81.1699 52.2982 80.9102 53.3418 80.9102C54.0345 80.9102 54.652 81.0378 55.1943 81.293C55.7367 81.5482 56.1628 81.9128 56.4727 82.3867C56.7826 82.8561 56.9375 83.3779 56.9375 83.9521H55.2148C55.2148 83.4326 55.0508 83.027 54.7227 82.7354C54.3991 82.4391 53.9342 82.291 53.3281 82.291C52.763 82.291 52.3232 82.4118 52.0088 82.6533C51.6989 82.8949 51.5439 83.2321 51.5439 83.665C51.5439 84.0296 51.7126 84.335 52.0498 84.5811C52.387 84.8226 52.943 85.0596 53.7178 85.292C54.4925 85.5199 55.1146 85.7819 55.584 86.0781C56.0534 86.3698 56.3975 86.707 56.6162 87.0898C56.835 87.4681 56.9443 87.9124 56.9443 88.4229C56.9443 89.2523 56.6253 89.9131 55.9873 90.4053C55.3538 90.8929 54.4925 91.1367 53.4033 91.1367C52.6833 91.1367 52.0202 91.0046 51.4141 90.7402C50.8125 90.4714 50.3431 90.1022 50.0059 89.6328C49.6732 89.1634 49.5068 88.6165 49.5068 87.9922H51.2363C51.2363 88.5573 51.4232 88.9948 51.7969 89.3047C52.1706 89.6146 52.7061 89.7695 53.4033 89.7695C54.0049 89.7695 54.4561 89.6488 54.7568 89.4072C55.0622 89.1611 55.2148 88.8376 55.2148 88.4365ZM65.6533 82.4414H62.5498V91H60.834V82.4414H57.7578V81.0469H65.6533V82.4414ZM70.623 87.165H68.6953V91H66.9658V81.0469H70.4658C71.6143 81.0469 72.5007 81.3044 73.125 81.8193C73.7493 82.3343 74.0615 83.0794 74.0615 84.0547C74.0615 84.7201 73.8997 85.2783 73.5762 85.7295C73.2572 86.1761 72.8105 86.5202 72.2363 86.7617L74.4717 90.9111V91H72.6191L70.623 87.165ZM68.6953 85.7773H70.4727C71.056 85.7773 71.5117 85.6315 71.8398 85.3398C72.168 85.0436 72.332 84.6403 72.332 84.1299C72.332 83.5967 72.1794 83.1842 71.874 82.8926C71.5732 82.6009 71.1221 82.4505 70.5205 82.4414H68.6953V85.7773ZM81.2734 88.6826H77.418L76.6113 91H74.8135L78.5732 81.0469H80.125L83.8916 91H82.0869L81.2734 88.6826ZM77.9033 87.2881H80.7881L79.3457 83.1592L77.9033 87.2881ZM86.7559 87.3018V91H85.0264V81.0469H88.834C89.946 81.0469 90.8278 81.3363 91.4795 81.915C92.1357 82.4938 92.4639 83.2594 92.4639 84.2119C92.4639 85.1872 92.1426 85.946 91.5 86.4883C90.862 87.0306 89.9665 87.3018 88.8135 87.3018H86.7559ZM86.7559 85.9141H88.834C89.4492 85.9141 89.9186 85.7705 90.2422 85.4834C90.5658 85.1917 90.7275 84.7725 90.7275 84.2256C90.7275 83.6878 90.5635 83.2594 90.2354 82.9404C89.9072 82.6169 89.4561 82.4505 88.8818 82.4414H86.7559V85.9141Z" fill="black"/>
</svg>
