<svg width="104" height="134" viewBox="0 0 104 134" fill="none" xmlns="http://www.w3.org/2000/svg">
<path d="M2 60.5C10.5915 60.5 24 60.5 24 60.5M102 60.5L74 60.5M2 111.5H102M24 60.5C26.3333 43.3333 46 13.7 102 30.5M24 60.5L74 60.5M74 60.5C75.5 42.3333 65.5 -4.85778e-06 22 2M12 132H92C97.5228 132 102 127.523 102 122V12C102 6.47715 97.5228 2 92 2H12C6.47715 2 2 6.47715 2 12V122C2 127.523 6.47716 132 12 132Z" stroke="black" stroke-width="3" stroke-linejoin="round"/>
<path d="M18.6221 91V81.0469H22.0332C23.1589 81.0469 24.0156 81.2725 24.6035 81.7236C25.1914 82.1748 25.4854 82.847 25.4854 83.7402C25.4854 84.196 25.3623 84.6061 25.1162 84.9707C24.8701 85.3353 24.5101 85.6178 24.0361 85.8184C24.5739 85.9642 24.9886 86.2399 25.2803 86.6455C25.5765 87.0465 25.7246 87.5296 25.7246 88.0947C25.7246 89.029 25.4238 89.7467 24.8223 90.248C24.2253 90.7493 23.3685 91 22.252 91H18.6221ZM20.3516 86.5088V89.6191H22.2725C22.8148 89.6191 23.2386 89.4847 23.5439 89.2158C23.8493 88.9469 24.002 88.5732 24.002 88.0947C24.002 87.0602 23.4733 86.5316 22.416 86.5088H20.3516ZM20.3516 85.2373H22.0469C22.5846 85.2373 23.0039 85.1165 23.3047 84.875C23.61 84.6289 23.7627 84.2826 23.7627 83.8359C23.7627 83.3438 23.6214 82.9883 23.3389 82.7695C23.0609 82.5508 22.6257 82.4414 22.0332 82.4414H20.3516V85.2373ZM33.0254 88.6826H29.1699L28.3633 91H26.5654L30.3252 81.0469H31.877L35.6436 91H33.8389L33.0254 88.6826ZM29.6553 87.2881H32.54L31.0977 83.1592L29.6553 87.2881ZM44.2227 87.7598C44.1224 88.8216 43.7305 89.651 43.0469 90.248C42.3633 90.8405 41.4541 91.1367 40.3193 91.1367C39.5264 91.1367 38.8268 90.9499 38.2207 90.5762C37.6191 90.1979 37.1543 89.6624 36.8262 88.9697C36.498 88.277 36.3271 87.4727 36.3135 86.5566V85.627C36.3135 84.6882 36.4798 83.861 36.8125 83.1455C37.1452 82.43 37.6214 81.8786 38.2412 81.4912C38.8656 81.1038 39.5856 80.9102 40.4014 80.9102C41.4997 80.9102 42.3838 81.2087 43.0537 81.8057C43.7236 82.4027 44.1133 83.2458 44.2227 84.335H42.5C42.418 83.6195 42.2083 83.1045 41.8711 82.79C41.5384 82.471 41.0485 82.3115 40.4014 82.3115C39.6494 82.3115 39.0706 82.5872 38.665 83.1387C38.264 83.6855 38.0589 84.4899 38.0498 85.5518V86.4336C38.0498 87.5091 38.2412 88.3294 38.624 88.8945C39.0114 89.4596 39.5765 89.7422 40.3193 89.7422C40.9984 89.7422 41.5088 89.5895 41.8506 89.2842C42.1924 88.9788 42.4089 88.4707 42.5 87.7598H44.2227ZM53.6768 91H51.9541V86.5771H47.5039V91H45.7744V81.0469H47.5039V85.1895H51.9541V81.0469H53.6768V91ZM61.4219 88.6826H57.5664L56.7598 91H54.9619L58.7217 81.0469H60.2734L64.04 91H62.2354L61.4219 88.6826ZM58.0518 87.2881H60.9365L59.4941 83.1592L58.0518 87.2881ZM68.832 87.165H66.9043V91H65.1748V81.0469H68.6748C69.8232 81.0469 70.7096 81.3044 71.334 81.8193C71.9583 82.3343 72.2705 83.0794 72.2705 84.0547C72.2705 84.7201 72.1087 85.2783 71.7852 85.7295C71.4661 86.1761 71.0195 86.5202 70.4453 86.7617L72.6807 90.9111V91H70.8281L68.832 87.165ZM66.9043 85.7773H68.6816C69.265 85.7773 69.7207 85.6315 70.0488 85.3398C70.377 85.0436 70.541 84.6403 70.541 84.1299C70.541 83.5967 70.3883 83.1842 70.083 82.8926C69.7822 82.6009 69.3311 82.4505 68.7295 82.4414H66.9043V85.7773ZM79.7285 86.5566H75.6406V89.6191H80.4189V91H73.9111V81.0469H80.3711V82.4414H75.6406V85.1895H79.7285V86.5566ZM83.5566 89.6191H88.0752V91H81.8271V81.0469H83.5566V89.6191Z" fill="black"/>
</svg>
