<svg width="104" height="134" viewBox="0 0 104 134" fill="none" xmlns="http://www.w3.org/2000/svg">
<path d="M2 60.5C10.5915 60.5 24 60.5 24 60.5M102 60.5L74 60.5M2 111.5H102M24 60.5C26.3333 43.3333 46 13.7 102 30.5M24 60.5L74 60.5M74 60.5C75.5 42.3333 65.5 -4.85778e-06 22 2M12 132H92C97.5228 132 102 127.523 102 122V12C102 6.47715 97.5228 2 92 2H12C6.47715 2 2 6.47715 2 12V122C2 127.523 6.47716 132 12 132Z" stroke="black" stroke-width="3" stroke-linejoin="round"/>
<path d="M45.4297 89.4453C45.2578 91.2656 44.5859 92.6875 43.4141 93.7109C42.2422 94.7266 40.6836 95.2344 38.7383 95.2344C37.3789 95.2344 36.1797 94.9141 35.1406 94.2734C34.1094 93.625 33.3125 92.707 32.75 91.5195C32.1875 90.332 31.8945 88.9531 31.8711 87.3828V85.7891C31.8711 84.1797 32.1562 82.7617 32.7266 81.5352C33.2969 80.3086 34.1133 79.3633 35.1758 78.6992C36.2461 78.0352 37.4805 77.7031 38.8789 77.7031C40.7617 77.7031 42.2773 78.2148 43.4258 79.2383C44.5742 80.2617 45.2422 81.707 45.4297 83.5742H42.4766C42.3359 82.3477 41.9766 81.4648 41.3984 80.9258C40.8281 80.3789 39.9883 80.1055 38.8789 80.1055C37.5898 80.1055 36.5977 80.5781 35.9023 81.5234C35.2148 82.4609 34.8633 83.8398 34.8477 85.6602V87.1719C34.8477 89.0156 35.1758 90.4219 35.832 91.3906C36.4961 92.3594 37.4648 92.8438 38.7383 92.8438C39.9023 92.8438 40.7773 92.582 41.3633 92.0586C41.9492 91.5352 42.3203 90.6641 42.4766 89.4453H45.4297ZM57.0078 90.6055C57.0078 89.8555 56.7422 89.2773 56.2109 88.8711C55.6875 88.4648 54.7383 88.0547 53.3633 87.6406C51.9883 87.2266 50.8945 86.7656 50.082 86.2578C48.5273 85.2812 47.75 84.0078 47.75 82.4375C47.75 81.0625 48.3086 79.9297 49.4258 79.0391C50.5508 78.1484 52.0078 77.7031 53.7969 77.7031C54.9844 77.7031 56.043 77.9219 56.9727 78.3594C57.9023 78.7969 58.6328 79.4219 59.1641 80.2344C59.6953 81.0391 59.9609 81.9336 59.9609 82.918H57.0078C57.0078 82.0273 56.7266 81.332 56.1641 80.832C55.6094 80.3242 54.8125 80.0703 53.7734 80.0703C52.8047 80.0703 52.0508 80.2773 51.5117 80.6914C50.9805 81.1055 50.7148 81.6836 50.7148 82.4258C50.7148 83.0508 51.0039 83.5742 51.582 83.9961C52.1602 84.4102 53.1133 84.8164 54.4414 85.2148C55.7695 85.6055 56.8359 86.0547 57.6406 86.5625C58.4453 87.0625 59.0352 87.6406 59.4102 88.2969C59.7852 88.9453 59.9727 89.707 59.9727 90.582C59.9727 92.0039 59.4258 93.1367 58.332 93.9805C57.2461 94.8164 55.7695 95.2344 53.9023 95.2344C52.668 95.2344 51.5312 95.0078 50.4922 94.5547C49.4609 94.0938 48.6562 93.4609 48.0781 92.6562C47.5078 91.8516 47.2227 90.9141 47.2227 89.8438H50.1875C50.1875 90.8125 50.5078 91.5625 51.1484 92.0938C51.7891 92.625 52.707 92.8906 53.9023 92.8906C54.9336 92.8906 55.707 92.6836 56.2227 92.2695C56.7461 91.8477 57.0078 91.293 57.0078 90.6055ZM71.4922 90.6055C71.4922 89.8555 71.2266 89.2773 70.6953 88.8711C70.1719 88.4648 69.2227 88.0547 67.8477 87.6406C66.4727 87.2266 65.3789 86.7656 64.5664 86.2578C63.0117 85.2812 62.2344 84.0078 62.2344 82.4375C62.2344 81.0625 62.793 79.9297 63.9102 79.0391C65.0352 78.1484 66.4922 77.7031 68.2812 77.7031C69.4688 77.7031 70.5273 77.9219 71.457 78.3594C72.3867 78.7969 73.1172 79.4219 73.6484 80.2344C74.1797 81.0391 74.4453 81.9336 74.4453 82.918H71.4922C71.4922 82.0273 71.2109 81.332 70.6484 80.832C70.0938 80.3242 69.2969 80.0703 68.2578 80.0703C67.2891 80.0703 66.5352 80.2773 65.9961 80.6914C65.4648 81.1055 65.1992 81.6836 65.1992 82.4258C65.1992 83.0508 65.4883 83.5742 66.0664 83.9961C66.6445 84.4102 67.5977 84.8164 68.9258 85.2148C70.2539 85.6055 71.3203 86.0547 72.125 86.5625C72.9297 87.0625 73.5195 87.6406 73.8945 88.2969C74.2695 88.9453 74.457 89.707 74.457 90.582C74.457 92.0039 73.9102 93.1367 72.8164 93.9805C71.7305 94.8164 70.2539 95.2344 68.3867 95.2344C67.1523 95.2344 66.0156 95.0078 64.9766 94.5547C63.9453 94.0938 63.1406 93.4609 62.5625 92.6562C61.9922 91.8516 61.707 90.9141 61.707 89.8438H64.6719C64.6719 90.8125 64.9922 91.5625 65.6328 92.0938C66.2734 92.625 67.1914 92.8906 68.3867 92.8906C69.418 92.8906 70.1914 92.6836 70.707 92.2695C71.2305 91.8477 71.4922 91.293 71.4922 90.6055Z" fill="black"/>
</svg>
