<svg width="104" height="134" viewBox="0 0 104 134" fill="none" xmlns="http://www.w3.org/2000/svg">
<path d="M2 60.5C10.5915 60.5 24 60.5 24 60.5M102 60.5L74 60.5M2 111.5H102M24 60.5C26.3333 43.3333 46 13.7 102 30.5M24 60.5L74 60.5M74 60.5C75.5 42.3333 65.5 -4.85778e-06 22 2M12 132H92C97.5228 132 102 127.523 102 122V12C102 6.47715 97.5228 2 92 2H12C6.47715 2 2 6.47715 2 12V122C2 127.523 6.47716 132 12 132Z" stroke="black" stroke-width="3" stroke-linejoin="round"/>
<path d="M27.8047 87.7695H20.9375V95H17.9727V77.9375H28.8125V80.3281H20.9375V85.4023H27.8047V87.7695ZM34.2969 95H31.3438V77.9375H34.2969V95ZM51.0195 92.7852C50.4023 93.5898 49.5469 94.1992 48.4531 94.6133C47.3594 95.0273 46.1172 95.2344 44.7266 95.2344C43.2969 95.2344 42.0312 94.9102 40.9297 94.2617C39.8281 93.6133 38.9766 92.6875 38.375 91.4844C37.7812 90.2734 37.4727 88.8633 37.4492 87.2539V85.918C37.4492 83.3398 38.0664 81.3281 39.3008 79.8828C40.5352 78.4297 42.2578 77.7031 44.4688 77.7031C46.3672 77.7031 47.875 78.1719 48.9922 79.1094C50.1094 80.0469 50.7812 81.3984 51.0078 83.1641H48.1016C47.7734 81.1094 46.582 80.082 44.5273 80.082C43.1992 80.082 42.1875 80.5625 41.4922 81.5234C40.8047 82.4766 40.4492 83.8789 40.4258 85.7305V87.043C40.4258 88.8867 40.8125 90.3203 41.5859 91.3438C42.3672 92.3594 43.4492 92.8672 44.832 92.8672C46.3477 92.8672 47.4258 92.5234 48.0664 91.8359V88.4961H44.5508V86.2461H51.0195V92.7852ZM58.1211 77.9375L63.043 91.0156L67.9531 77.9375H71.7852V95H68.832V89.375L69.125 81.8516L64.0859 95H61.9648L56.9375 81.8633L57.2305 89.375V95H54.2773V77.9375H58.1211ZM85.0625 91.0273H78.4531L77.0703 95H73.9883L80.4336 77.9375H83.0938L89.5508 95H86.457L85.0625 91.0273ZM79.2852 88.6367H84.2305L81.7578 81.5586L79.2852 88.6367Z" fill="black"/>
</svg>
