<svg width="104" height="134" viewBox="0 0 104 134" fill="none" xmlns="http://www.w3.org/2000/svg">
<path d="M2 60.5C10.5915 60.5 24 60.5 24 60.5M102 60.5L74 60.5M2 111.5H102M24 60.5C26.3333 43.3333 46 13.7 102 30.5M24 60.5L74 60.5M74 60.5C75.5 42.3333 65.5 -4.85778e-06 22 2M12 132H92C97.5228 132 102 127.523 102 122V12C102 6.47715 97.5228 2 92 2H12C6.47715 2 2 6.47715 2 12V122C2 127.523 6.47716 132 12 132Z" stroke="black" stroke-width="3" stroke-linejoin="round"/>
<path d="M35.6328 95H32.6797V87.418H25.0508V95H22.0859V77.9375H25.0508V85.0391H32.6797V77.9375H35.6328V95ZM51.125 80.3281H45.8047V95H42.8633V80.3281H37.5898V77.9375H51.125V80.3281ZM57.2188 77.9375L62.1406 91.0156L67.0508 77.9375H70.8828V95H67.9297V89.375L68.2227 81.8516L63.1836 95H61.0625L56.0352 81.8633L56.3281 89.375V95H53.375V77.9375H57.2188ZM77.3633 92.6328H85.1094V95H74.3984V77.9375H77.3633V92.6328Z" fill="black"/>
</svg>
