<svg width="104" height="134" viewBox="0 0 104 134" fill="none" xmlns="http://www.w3.org/2000/svg">
<path d="M2 60.5C10.5915 60.5 24 60.5 24 60.5M102 60.5L74 60.5M2 111.5H102M24 60.5C26.3333 43.3333 46 13.7 102 30.5M24 60.5L74 60.5M74 60.5C75.5 42.3333 65.5 -4.85778e-06 22 2M12 132H92C97.5228 132 102 127.523 102 122V12C102 6.47715 97.5228 2 92 2H12C6.47715 2 2 6.47715 2 12V122C2 127.523 6.47716 132 12 132Z" stroke="black" stroke-width="3" stroke-linejoin="round"/>
<path d="M47.8086 77.9375H50.7617V89.9023C50.7617 91.5352 50.25 92.832 49.2266 93.793C48.2109 94.7539 46.8672 95.2344 45.1953 95.2344C43.4141 95.2344 42.0391 94.7852 41.0703 93.8867C40.1016 92.9883 39.6172 91.7383 39.6172 90.1367H42.5703C42.5703 91.043 42.793 91.7266 43.2383 92.1875C43.6914 92.6406 44.3438 92.8672 45.1953 92.8672C45.9922 92.8672 46.625 92.6055 47.0938 92.082C47.5703 91.5508 47.8086 90.8203 47.8086 89.8906V77.9375ZM63.0781 90.6055C63.0781 89.8555 62.8125 89.2773 62.2812 88.8711C61.7578 88.4648 60.8086 88.0547 59.4336 87.6406C58.0586 87.2266 56.9648 86.7656 56.1523 86.2578C54.5977 85.2812 53.8203 84.0078 53.8203 82.4375C53.8203 81.0625 54.3789 79.9297 55.4961 79.0391C56.6211 78.1484 58.0781 77.7031 59.8672 77.7031C61.0547 77.7031 62.1133 77.9219 63.043 78.3594C63.9727 78.7969 64.7031 79.4219 65.2344 80.2344C65.7656 81.0391 66.0312 81.9336 66.0312 82.918H63.0781C63.0781 82.0273 62.7969 81.332 62.2344 80.832C61.6797 80.3242 60.8828 80.0703 59.8438 80.0703C58.875 80.0703 58.1211 80.2773 57.582 80.6914C57.0508 81.1055 56.7852 81.6836 56.7852 82.4258C56.7852 83.0508 57.0742 83.5742 57.6523 83.9961C58.2305 84.4102 59.1836 84.8164 60.5117 85.2148C61.8398 85.6055 62.9062 86.0547 63.7109 86.5625C64.5156 87.0625 65.1055 87.6406 65.4805 88.2969C65.8555 88.9453 66.043 89.707 66.043 90.582C66.043 92.0039 65.4961 93.1367 64.4023 93.9805C63.3164 94.8164 61.8398 95.2344 59.9727 95.2344C58.7383 95.2344 57.6016 95.0078 56.5625 94.5547C55.5312 94.0938 54.7266 93.4609 54.1484 92.6562C53.5781 91.8516 53.293 90.9141 53.293 89.8438H56.2578C56.2578 90.8125 56.5781 91.5625 57.2188 92.0938C57.8594 92.625 58.7773 92.8906 59.9727 92.8906C61.0039 92.8906 61.7773 92.6836 62.293 92.2695C62.8164 91.8477 63.0781 91.293 63.0781 90.6055Z" fill="black"/>
</svg>
