<svg width="104" height="134" viewBox="0 0 104 134" fill="none" xmlns="http://www.w3.org/2000/svg">
<path d="M2 60.5C10.5915 60.5 24 60.5 24 60.5M102 60.5L74 60.5M2 111.5H102M24 60.5C26.3333 43.3333 46 13.7 102 30.5M24 60.5L74 60.5M74 60.5C75.5 42.3333 65.5 -4.85778e-06 22 2M12 132H92C97.5228 132 102 127.523 102 122V12C102 6.47715 97.5228 2 92 2H12C6.47715 2 2 6.47715 2 12V122C2 127.523 6.47716 132 12 132Z" stroke="black" stroke-width="3" stroke-linejoin="round"/>
<path d="M26.4746 80.2031H28.6895V89.1768C28.6895 90.4014 28.3057 91.374 27.5381 92.0947C26.7764 92.8154 25.7686 93.1758 24.5146 93.1758C23.1787 93.1758 22.1475 92.8389 21.4209 92.165C20.6943 91.4912 20.3311 90.5537 20.3311 89.3525H22.5459C22.5459 90.0322 22.7129 90.5449 23.0469 90.8906C23.3867 91.2305 23.876 91.4004 24.5146 91.4004C25.1123 91.4004 25.5869 91.2041 25.9385 90.8115C26.2959 90.4131 26.4746 89.8652 26.4746 89.168V80.2031ZM41.4072 86.9355C41.4072 88.1484 41.2139 89.2002 40.8271 90.0908C40.4463 90.9756 39.9102 91.6787 39.2188 92.2002L41.416 93.9141L39.9746 95.2148L37.25 93.0615C36.8926 93.1377 36.5088 93.1758 36.0986 93.1758C35.0674 93.1758 34.1445 92.9238 33.3301 92.4199C32.5215 91.9102 31.8945 91.1865 31.4492 90.249C31.0098 89.3115 30.7871 88.2305 30.7812 87.0059V86.2852C30.7812 85.0371 31.001 83.9355 31.4404 82.9805C31.8857 82.0254 32.5098 81.2959 33.3125 80.792C34.1211 80.2822 35.0439 80.0273 36.0811 80.0273C37.1357 80.0273 38.0645 80.2793 38.8672 80.7832C39.6758 81.2812 40.2998 82.002 40.7393 82.9453C41.1787 83.8828 41.4014 84.9756 41.4072 86.2236V86.9355ZM39.1748 86.2676C39.1748 84.8262 38.9053 83.7334 38.3662 82.9893C37.8271 82.2451 37.0654 81.873 36.0811 81.873C35.126 81.873 34.376 82.251 33.8311 83.0068C33.292 83.7568 33.0166 84.8174 33.0049 86.1885V86.9355C33.0049 88.3184 33.2744 89.3994 33.8135 90.1787C34.3584 90.958 35.1201 91.3477 36.0986 91.3477C37.0889 91.3477 37.8477 90.9727 38.375 90.2227C38.9082 89.4727 39.1748 88.377 39.1748 86.9355V86.2676ZM53.0264 80.2031V88.7549C53.0264 90.1143 52.5898 91.1924 51.7168 91.9893C50.8496 92.7803 49.6924 93.1758 48.2451 93.1758C46.7803 93.1758 45.6172 92.7861 44.7559 92.0068C43.8945 91.2217 43.4639 90.1348 43.4639 88.7461V80.2031H45.6787V88.7637C45.6787 89.6191 45.8955 90.2725 46.3291 90.7236C46.7627 91.1748 47.4014 91.4004 48.2451 91.4004C49.9561 91.4004 50.8115 90.498 50.8115 88.6934V80.2031H53.0264ZM62.8877 87.2871H57.6318V91.2246H63.7754V93H55.4082V80.2031H63.7139V81.9961H57.6318V85.5293H62.8877V87.2871ZM70.2881 88.0693H67.8096V93H65.5859V80.2031H70.0859C71.5625 80.2031 72.7021 80.5342 73.5049 81.1963C74.3076 81.8584 74.709 82.8164 74.709 84.0703C74.709 84.9258 74.501 85.6436 74.085 86.2236C73.6748 86.7979 73.1006 87.2402 72.3623 87.5508L75.2363 92.8857V93H72.8545L70.2881 88.0693ZM67.8096 86.2852H70.0947C70.8447 86.2852 71.4307 86.0977 71.8525 85.7227C72.2744 85.3418 72.4854 84.8232 72.4854 84.167C72.4854 83.4814 72.2891 82.9512 71.8965 82.5762C71.5098 82.2012 70.9297 82.0078 70.1562 81.9961H67.8096V86.2852ZM80.5713 86.2676L83.5156 80.2031H85.9766L81.6875 88.2891V93H79.4551V88.2891L75.1572 80.2031H77.627L80.5713 86.2676Z" fill="black"/>
</svg>
