<svg width="104" height="134" viewBox="0 0 104 134" fill="none" xmlns="http://www.w3.org/2000/svg">
<path d="M2 60.5C10.5915 60.5 24 60.5 24 60.5M102 60.5L74 60.5M2 111.5H102M24 60.5C26.3333 43.3333 46 13.7 102 30.5M24 60.5L74 60.5M74 60.5C75.5 42.3333 65.5 -4.85778e-06 22 2M12 132H92C97.5228 132 102 127.523 102 122V12C102 6.47715 97.5228 2 92 2H12C6.47715 2 2 6.47715 2 12V122C2 127.523 6.47716 132 12 132Z" stroke="black" stroke-width="3" stroke-linejoin="round"/>
<path d="M24.2773 92.6328H32.0234V95H21.3125V77.9375H24.2773V92.6328ZM37.4258 95H34.4727V77.9375H37.4258V95ZM47.082 91.2852L51.418 77.9375H54.6758L48.5352 95H45.6641L39.5469 77.9375H42.793L47.082 91.2852ZM62.8789 88.4258H59.5742V95H56.6094V77.9375H62.6094C64.5781 77.9375 66.0977 78.3789 67.168 79.2617C68.2383 80.1445 68.7734 81.4219 68.7734 83.0938C68.7734 84.2344 68.4961 85.1914 67.9414 85.9648C67.3945 86.7305 66.6289 87.3203 65.6445 87.7344L69.4766 94.8477V95H66.3008L62.8789 88.4258ZM59.5742 86.0469H62.6211C63.6211 86.0469 64.4023 85.7969 64.9648 85.2969C65.5273 84.7891 65.8086 84.0977 65.8086 83.2227C65.8086 82.3086 65.5469 81.6016 65.0234 81.1016C64.5078 80.6016 63.7344 80.3438 62.7031 80.3281H59.5742V86.0469ZM85.2031 86.9141C85.2031 88.5859 84.9141 90.0547 84.3359 91.3203C83.7578 92.5781 82.9297 93.5469 81.8516 94.2266C80.7812 94.8984 79.5469 95.2344 78.1484 95.2344C76.7656 95.2344 75.5312 94.8984 74.4453 94.2266C73.3672 93.5469 72.5312 92.582 71.9375 91.332C71.3516 90.082 71.0547 88.6406 71.0469 87.0078V86.0469C71.0469 84.3828 71.3398 82.9141 71.9258 81.6406C72.5195 80.3672 73.3516 79.3945 74.4219 78.7227C75.5 78.043 76.7344 77.7031 78.125 77.7031C79.5156 77.7031 80.7461 78.0391 81.8164 78.7109C82.8945 79.375 83.7266 80.3359 84.3125 81.5938C84.8984 82.8438 85.1953 84.3008 85.2031 85.9648V86.9141ZM82.2383 86.0234C82.2383 84.1328 81.8789 82.6836 81.1602 81.6758C80.4492 80.668 79.4375 80.1641 78.125 80.1641C76.8438 80.1641 75.8398 80.668 75.1133 81.6758C74.3945 82.6758 74.0273 84.0938 74.0117 85.9297V86.9141C74.0117 88.7891 74.375 90.2383 75.1016 91.2617C75.8359 92.2852 76.8516 92.7969 78.1484 92.7969C79.4609 92.7969 80.4688 92.2969 81.1719 91.2969C81.8828 90.2969 82.2383 88.8359 82.2383 86.9141V86.0234Z" fill="black"/>
</svg>
