<svg width="104" height="134" viewBox="0 0 104 134" fill="none" xmlns="http://www.w3.org/2000/svg">
<path d="M2 60.5C10.5915 60.5 24 60.5 24 60.5M102 60.5L74 60.5M2 111.5H102M24 60.5C26.3333 43.3333 46 13.7 102 30.5M24 60.5L74 60.5M74 60.5C75.5 42.3333 65.5 -4.85778e-06 22 2M12 132H92C97.5228 132 102 127.523 102 122V12C102 6.47715 97.5228 2 92 2H12C6.47715 2 2 6.47715 2 12V122C2 127.523 6.47716 132 12 132Z" stroke="black" stroke-width="3" stroke-linejoin="round"/>
<path d="M32.5039 77.9375L37.4258 91.0156L42.3359 77.9375H46.168V95H43.2148V89.375L43.5078 81.8516L38.4688 95H36.3477L31.3203 81.8633L31.6133 89.375V95H28.6602V77.9375H32.5039ZM49.6836 95V77.9375H55.5312C57.4609 77.9375 58.9297 78.3242 59.9375 79.0977C60.9453 79.8711 61.4492 81.0234 61.4492 82.5547C61.4492 83.3359 61.2383 84.0391 60.8164 84.6641C60.3945 85.2891 59.7773 85.7734 58.9648 86.1172C59.8867 86.3672 60.5977 86.8398 61.0977 87.5352C61.6055 88.2227 61.8594 89.0508 61.8594 90.0195C61.8594 91.6211 61.3438 92.8516 60.3125 93.7109C59.2891 94.5703 57.8203 95 55.9062 95H49.6836ZM52.6484 87.3008V92.6328H55.9414C56.8711 92.6328 57.5977 92.4023 58.1211 91.9414C58.6445 91.4805 58.9062 90.8398 58.9062 90.0195C58.9062 88.2461 58 87.3398 56.1875 87.3008H52.6484ZM52.6484 85.1211H55.5547C56.4766 85.1211 57.1953 84.9141 57.7109 84.5C58.2344 84.0781 58.4961 83.4844 58.4961 82.7188C58.4961 81.875 58.2539 81.2656 57.7695 80.8906C57.293 80.5156 56.5469 80.3281 55.5312 80.3281H52.6484V85.1211ZM74.375 91.0273H67.7656L66.3828 95H63.3008L69.7461 77.9375H72.4062L78.8633 95H75.7695L74.375 91.0273ZM68.5977 88.6367H73.543L71.0703 81.5586L68.5977 88.6367Z" fill="black"/>
</svg>
