<svg width="104" height="134" viewBox="0 0 104 134" fill="none" xmlns="http://www.w3.org/2000/svg">
<path d="M2 60.5C10.5915 60.5 24 60.5 24 60.5M102 60.5L74 60.5M2 111.5H102M24 60.5C26.3333 43.3333 46 13.7 102 30.5M24 60.5L74 60.5M74 60.5C75.5 42.3333 65.5 -4.85778e-06 22 2M12 132H92C97.5228 132 102 127.523 102 122V12C102 6.47715 97.5228 2 92 2H12C6.47715 2 2 6.47715 2 12V122C2 127.523 6.47716 132 12 132Z" stroke="black" stroke-width="3" stroke-linejoin="round"/>
<path d="M43.2031 90.7812L45.8281 77.9375H48.7695L44.832 95H41.9961L38.75 82.543L35.4336 95H32.5859L28.6484 77.9375H31.5898L34.2383 90.7578L37.4961 77.9375H39.9805L43.2031 90.7812ZM60.9102 87.3828H53.9023V92.6328H62.0938V95H50.9375V77.9375H62.0117V80.3281H53.9023V85.0391H60.9102V87.3828ZM64.5078 95V77.9375H70.3555C72.2852 77.9375 73.7539 78.3242 74.7617 79.0977C75.7695 79.8711 76.2734 81.0234 76.2734 82.5547C76.2734 83.3359 76.0625 84.0391 75.6406 84.6641C75.2188 85.2891 74.6016 85.7734 73.7891 86.1172C74.7109 86.3672 75.4219 86.8398 75.9219 87.5352C76.4297 88.2227 76.6836 89.0508 76.6836 90.0195C76.6836 91.6211 76.168 92.8516 75.1367 93.7109C74.1133 94.5703 72.6445 95 70.7305 95H64.5078ZM67.4727 87.3008V92.6328H70.7656C71.6953 92.6328 72.4219 92.4023 72.9453 91.9414C73.4688 91.4805 73.7305 90.8398 73.7305 90.0195C73.7305 88.2461 72.8242 87.3398 71.0117 87.3008H67.4727ZM67.4727 85.1211H70.3789C71.3008 85.1211 72.0195 84.9141 72.5352 84.5C73.0586 84.0781 73.3203 83.4844 73.3203 82.7188C73.3203 81.875 73.0781 81.2656 72.5938 80.8906C72.1172 80.5156 71.3711 80.3281 70.3555 80.3281H67.4727V85.1211Z" fill="black"/>
</svg>
