<svg width="104" height="134" viewBox="0 0 104 134" fill="none" xmlns="http://www.w3.org/2000/svg">
<path d="M2 60.5C10.5915 60.5 24 60.5 24 60.5M102 60.5L74 60.5M2 111.5H102M24 60.5C26.3333 43.3333 46 13.7 102 30.5M24 60.5L74 60.5M74 60.5C75.5 42.3333 65.5 -4.85778e-06 22 2M12 132H92C97.5228 132 102 127.523 102 122V12C102 6.47715 97.5228 2 92 2H12C6.47715 2 2 6.47715 2 12V122C2 127.523 6.47716 132 12 132Z" stroke="black" stroke-width="3" stroke-linejoin="round"/>
<path d="M33.8164 88.6602V95H30.8516V77.9375H37.3789C39.2852 77.9375 40.7969 78.4336 41.9141 79.4258C43.0391 80.418 43.6016 81.7305 43.6016 83.3633C43.6016 85.0352 43.0508 86.3359 41.9492 87.2656C40.8555 88.1953 39.3203 88.6602 37.3438 88.6602H33.8164ZM33.8164 86.2812H37.3789C38.4336 86.2812 39.2383 86.0352 39.793 85.543C40.3477 85.043 40.625 84.3242 40.625 83.3867C40.625 82.4648 40.3438 81.7305 39.7812 81.1836C39.2188 80.6289 38.4453 80.3438 37.4609 80.3281H33.8164V86.2812ZM59.75 95H56.7969V87.418H49.168V95H46.2031V77.9375H49.168V85.0391H56.7969V77.9375H59.75V95ZM66.2305 88.6602V95H63.2656V77.9375H69.793C71.6992 77.9375 73.2109 78.4336 74.3281 79.4258C75.4531 80.418 76.0156 81.7305 76.0156 83.3633C76.0156 85.0352 75.4648 86.3359 74.3633 87.2656C73.2695 88.1953 71.7344 88.6602 69.7578 88.6602H66.2305ZM66.2305 86.2812H69.793C70.8477 86.2812 71.6523 86.0352 72.207 85.543C72.7617 85.043 73.0391 84.3242 73.0391 83.3867C73.0391 82.4648 72.7578 81.7305 72.1953 81.1836C71.6328 80.6289 70.8594 80.3438 69.875 80.3281H66.2305V86.2812Z" fill="black"/>
</svg>
