<svg width="104" height="134" viewBox="0 0 104 134" fill="none" xmlns="http://www.w3.org/2000/svg">
<path d="M2 60.5C10.5915 60.5 24 60.5 24 60.5M102 60.5L74 60.5M2 111.5H102M24 60.5C26.3333 43.3333 46 13.7 102 30.5M24 60.5L74 60.5M74 60.5C75.5 42.3333 65.5 -4.85778e-06 22 2M12 132H92C97.5228 132 102 127.523 102 122V12C102 6.47715 97.5228 2 92 2H12C6.47715 2 2 6.47715 2 12V122C2 127.523 6.47716 132 12 132Z" stroke="black" stroke-width="3" stroke-linejoin="round"/>
<path d="M14.2471 87.3018V91H12.5176V81.0469H16.3252C17.4372 81.0469 18.319 81.3363 18.9707 81.915C19.627 82.4938 19.9551 83.2594 19.9551 84.2119C19.9551 85.1872 19.6338 85.946 18.9912 86.4883C18.3532 87.0306 17.4577 87.3018 16.3047 87.3018H14.2471ZM14.2471 85.9141H16.3252C16.9404 85.9141 17.4098 85.7705 17.7334 85.4834C18.057 85.1917 18.2188 84.7725 18.2188 84.2256C18.2188 83.6878 18.0547 83.2594 17.7266 82.9404C17.3984 82.6169 16.9473 82.4505 16.373 82.4414H14.2471V85.9141ZM29.375 91H27.6523V86.5771H23.2021V91H21.4727V81.0469H23.2021V85.1895H27.6523V81.0469H29.375V91ZM39.3691 86.2832C39.3691 87.2585 39.2005 88.1152 38.8633 88.8535C38.526 89.5872 38.043 90.1523 37.4141 90.5488C36.7897 90.9408 36.0697 91.1367 35.2539 91.1367C34.4473 91.1367 33.7272 90.9408 33.0938 90.5488C32.4648 90.1523 31.9772 89.5895 31.6309 88.8604C31.2891 88.1312 31.1159 87.2904 31.1113 86.3379V85.7773C31.1113 84.8066 31.2822 83.9499 31.624 83.207C31.9704 82.4642 32.4557 81.8968 33.0801 81.5049C33.709 81.1084 34.429 80.9102 35.2402 80.9102C36.0514 80.9102 36.7692 81.1061 37.3936 81.498C38.0225 81.8854 38.5078 82.446 38.8496 83.1797C39.1914 83.9089 39.3646 84.7588 39.3691 85.7295V86.2832ZM37.6396 85.7637C37.6396 84.6608 37.43 83.8154 37.0107 83.2275C36.596 82.6396 36.0059 82.3457 35.2402 82.3457C34.4928 82.3457 33.9072 82.6396 33.4834 83.2275C33.0641 83.8109 32.8499 84.638 32.8408 85.709V86.2832C32.8408 87.377 33.0527 88.2223 33.4766 88.8193C33.9049 89.4163 34.4974 89.7148 35.2539 89.7148C36.0195 89.7148 36.6074 89.4232 37.0176 88.8398C37.4323 88.2565 37.6396 87.4043 37.6396 86.2832V85.7637ZM47.6953 82.4414H44.5918V91H42.876V82.4414H39.7998V81.0469H47.6953V82.4414ZM56.7598 86.2832C56.7598 87.2585 56.5911 88.1152 56.2539 88.8535C55.9167 89.5872 55.4336 90.1523 54.8047 90.5488C54.1803 90.9408 53.4603 91.1367 52.6445 91.1367C51.8379 91.1367 51.1178 90.9408 50.4844 90.5488C49.8555 90.1523 49.3678 89.5895 49.0215 88.8604C48.6797 88.1312 48.5065 87.2904 48.502 86.3379V85.7773C48.502 84.8066 48.6729 83.9499 49.0146 83.207C49.361 82.4642 49.8464 81.8968 50.4707 81.5049C51.0996 81.1084 51.8197 80.9102 52.6309 80.9102C53.4421 80.9102 54.1598 81.1061 54.7842 81.498C55.4131 81.8854 55.8984 82.446 56.2402 83.1797C56.582 83.9089 56.7552 84.7588 56.7598 85.7295V86.2832ZM55.0303 85.7637C55.0303 84.6608 54.8206 83.8154 54.4014 83.2275C53.9867 82.6396 53.3965 82.3457 52.6309 82.3457C51.8835 82.3457 51.2979 82.6396 50.874 83.2275C50.4548 83.8109 50.2406 84.638 50.2314 85.709V86.2832C50.2314 87.377 50.4434 88.2223 50.8672 88.8193C51.2956 89.4163 51.888 89.7148 52.6445 89.7148C53.4102 89.7148 53.998 89.4232 54.4082 88.8398C54.8229 88.2565 55.0303 87.4043 55.0303 86.2832V85.7637ZM63.6846 88.4365C63.6846 87.999 63.5296 87.6618 63.2197 87.4248C62.9144 87.1878 62.3607 86.9486 61.5586 86.707C60.7565 86.4655 60.1185 86.1966 59.6445 85.9004C58.7376 85.3307 58.2842 84.5879 58.2842 83.6719C58.2842 82.8698 58.61 82.209 59.2617 81.6895C59.918 81.1699 60.7679 80.9102 61.8115 80.9102C62.5042 80.9102 63.1217 81.0378 63.6641 81.293C64.2064 81.5482 64.6325 81.9128 64.9424 82.3867C65.2523 82.8561 65.4072 83.3779 65.4072 83.9521H63.6846C63.6846 83.4326 63.5205 83.027 63.1924 82.7354C62.8688 82.4391 62.404 82.291 61.7979 82.291C61.2327 82.291 60.793 82.4118 60.4785 82.6533C60.1686 82.8949 60.0137 83.2321 60.0137 83.665C60.0137 84.0296 60.1823 84.335 60.5195 84.5811C60.8568 84.8226 61.4128 85.0596 62.1875 85.292C62.9622 85.5199 63.5843 85.7819 64.0537 86.0781C64.5231 86.3698 64.8672 86.707 65.0859 87.0898C65.3047 87.4681 65.4141 87.9124 65.4141 88.4229C65.4141 89.2523 65.0951 89.9131 64.457 90.4053C63.8236 90.8929 62.9622 91.1367 61.873 91.1367C61.153 91.1367 60.4899 91.0046 59.8838 90.7402C59.2822 90.4714 58.8128 90.1022 58.4756 89.6328C58.1429 89.1634 57.9766 88.6165 57.9766 87.9922H59.7061C59.7061 88.5573 59.8929 88.9948 60.2666 89.3047C60.6403 89.6146 61.1758 89.7695 61.873 89.7695C62.4746 89.7695 62.9258 89.6488 63.2266 89.4072C63.5319 89.1611 63.6846 88.8376 63.6846 88.4365ZM74.834 91H73.1113V86.5771H68.6611V91H66.9316V81.0469H68.6611V85.1895H73.1113V81.0469H74.834V91ZM84.8281 86.2832C84.8281 87.2585 84.6595 88.1152 84.3223 88.8535C83.985 89.5872 83.502 90.1523 82.873 90.5488C82.2487 90.9408 81.5286 91.1367 80.7129 91.1367C79.9062 91.1367 79.1862 90.9408 78.5527 90.5488C77.9238 90.1523 77.4362 89.5895 77.0898 88.8604C76.748 88.1312 76.5749 87.2904 76.5703 86.3379V85.7773C76.5703 84.8066 76.7412 83.9499 77.083 83.207C77.4294 82.4642 77.9147 81.8968 78.5391 81.5049C79.168 81.1084 79.888 80.9102 80.6992 80.9102C81.5104 80.9102 82.2282 81.1061 82.8525 81.498C83.4814 81.8854 83.9668 82.446 84.3086 83.1797C84.6504 83.9089 84.8236 84.7588 84.8281 85.7295V86.2832ZM83.0986 85.7637C83.0986 84.6608 82.889 83.8154 82.4697 83.2275C82.055 82.6396 81.4648 82.3457 80.6992 82.3457C79.9518 82.3457 79.3662 82.6396 78.9424 83.2275C78.5231 83.8109 78.3089 84.638 78.2998 85.709V86.2832C78.2998 87.377 78.5117 88.2223 78.9355 88.8193C79.3639 89.4163 79.9564 89.7148 80.7129 89.7148C81.4785 89.7148 82.0664 89.4232 82.4766 88.8398C82.8913 88.2565 83.0986 87.4043 83.0986 86.2832V85.7637ZM88.2803 87.3018V91H86.5508V81.0469H90.3584C91.4704 81.0469 92.3522 81.3363 93.0039 81.915C93.6602 82.4938 93.9883 83.2594 93.9883 84.2119C93.9883 85.1872 93.667 85.946 93.0244 86.4883C92.3864 87.0306 91.4909 87.3018 90.3379 87.3018H88.2803ZM88.2803 85.9141H90.3584C90.9736 85.9141 91.443 85.7705 91.7666 85.4834C92.0902 85.1917 92.252 84.7725 92.252 84.2256C92.252 83.6878 92.0879 83.2594 91.7598 82.9404C91.4316 82.6169 90.9805 82.4505 90.4062 82.4414H88.2803V85.9141Z" fill="black"/>
</svg>
