<svg width="104" height="134" viewBox="0 0 104 134" fill="none" xmlns="http://www.w3.org/2000/svg">
<path d="M2 60.5C10.5915 60.5 24 60.5 24 60.5M102 60.5L74 60.5M2 111.5H102M24 60.5C26.3333 43.3333 46 13.7 102 30.5M24 60.5L74 60.5M74 60.5C75.5 42.3333 65.5 -4.85778e-06 22 2M12 132H92C97.5228 132 102 127.523 102 122V12C102 6.47715 97.5228 2 92 2H12C6.47715 2 2 6.47715 2 12V122C2 127.523 6.47716 132 12 132Z" stroke="black" stroke-width="3" stroke-linejoin="round"/>
<path d="M23.9141 88.4258H20.6094V95H17.6445V77.9375H23.6445C25.6133 77.9375 27.1328 78.3789 28.2031 79.2617C29.2734 80.1445 29.8086 81.4219 29.8086 83.0938C29.8086 84.2344 29.5312 85.1914 28.9766 85.9648C28.4297 86.7305 27.6641 87.3203 26.6797 87.7344L30.5117 94.8477V95H27.3359L23.9141 88.4258ZM20.6094 86.0469H23.6562C24.6562 86.0469 25.4375 85.7969 26 85.2969C26.5625 84.7891 26.8438 84.0977 26.8438 83.2227C26.8438 82.3086 26.582 81.6016 26.0586 81.1016C25.543 80.6016 24.7695 80.3438 23.7383 80.3281H20.6094V86.0469ZM42.5938 87.3828H35.5859V92.6328H43.7773V95H32.6211V77.9375H43.6953V80.3281H35.5859V85.0391H42.5938V87.3828ZM55.7422 91.0273H49.1328L47.75 95H44.668L51.1133 77.9375H53.7734L60.2305 95H57.1367L55.7422 91.0273ZM49.9648 88.6367H54.9102L52.4375 81.5586L49.9648 88.6367ZM74.9375 89.4453C74.7656 91.2656 74.0938 92.6875 72.9219 93.7109C71.75 94.7266 70.1914 95.2344 68.2461 95.2344C66.8867 95.2344 65.6875 94.9141 64.6484 94.2734C63.6172 93.625 62.8203 92.707 62.2578 91.5195C61.6953 90.332 61.4023 88.9531 61.3789 87.3828V85.7891C61.3789 84.1797 61.6641 82.7617 62.2344 81.5352C62.8047 80.3086 63.6211 79.3633 64.6836 78.6992C65.7539 78.0352 66.9883 77.7031 68.3867 77.7031C70.2695 77.7031 71.7852 78.2148 72.9336 79.2383C74.082 80.2617 74.75 81.707 74.9375 83.5742H71.9844C71.8438 82.3477 71.4844 81.4648 70.9062 80.9258C70.3359 80.3789 69.4961 80.1055 68.3867 80.1055C67.0977 80.1055 66.1055 80.5781 65.4102 81.5234C64.7227 82.4609 64.3711 83.8398 64.3555 85.6602V87.1719C64.3555 89.0156 64.6836 90.4219 65.3398 91.3906C66.0039 92.3594 66.9727 92.8438 68.2461 92.8438C69.4102 92.8438 70.2852 92.582 70.8711 92.0586C71.457 91.5352 71.8281 90.6641 71.9844 89.4453H74.9375ZM89.5742 80.3281H84.2539V95H81.3125V80.3281H76.0391V77.9375H89.5742V80.3281Z" fill="black"/>
</svg>
