<svg width="104" height="134" viewBox="0 0 104 134" fill="none" xmlns="http://www.w3.org/2000/svg">
<path d="M2 60.5C10.5915 60.5 24 60.5 24 60.5M102 60.5L74 60.5M2 111.5H102M24 60.5C26.3333 43.3333 46 13.7 102 30.5M24 60.5L74 60.5M74 60.5C75.5 42.3333 65.5 -4.85778e-06 22 2M12 132H92C97.5228 132 102 127.523 102 122V12C102 6.47715 97.5228 2 92 2H12C6.47715 2 2 6.47715 2 12V122C2 127.523 6.47716 132 12 132Z" stroke="black" stroke-width="3" stroke-linejoin="round"/>
<path d="M41.6328 90.6055C41.6328 89.8555 41.3672 89.2773 40.8359 88.8711C40.3125 88.4648 39.3633 88.0547 37.9883 87.6406C36.6133 87.2266 35.5195 86.7656 34.707 86.2578C33.1523 85.2812 32.375 84.0078 32.375 82.4375C32.375 81.0625 32.9336 79.9297 34.0508 79.0391C35.1758 78.1484 36.6328 77.7031 38.4219 77.7031C39.6094 77.7031 40.668 77.9219 41.5977 78.3594C42.5273 78.7969 43.2578 79.4219 43.7891 80.2344C44.3203 81.0391 44.5859 81.9336 44.5859 82.918H41.6328C41.6328 82.0273 41.3516 81.332 40.7891 80.832C40.2344 80.3242 39.4375 80.0703 38.3984 80.0703C37.4297 80.0703 36.6758 80.2773 36.1367 80.6914C35.6055 81.1055 35.3398 81.6836 35.3398 82.4258C35.3398 83.0508 35.6289 83.5742 36.207 83.9961C36.7852 84.4102 37.7383 84.8164 39.0664 85.2148C40.3945 85.6055 41.4609 86.0547 42.2656 86.5625C43.0703 87.0625 43.6602 87.6406 44.0352 88.2969C44.4102 88.9453 44.5977 89.707 44.5977 90.582C44.5977 92.0039 44.0508 93.1367 42.957 93.9805C41.8711 94.8164 40.3945 95.2344 38.5273 95.2344C37.293 95.2344 36.1562 95.0078 35.1172 94.5547C34.0859 94.0938 33.2812 93.4609 32.7031 92.6562C32.1328 91.8516 31.8477 90.9141 31.8477 89.8438H34.8125C34.8125 90.8125 35.1328 91.5625 35.7734 92.0938C36.4141 92.625 37.332 92.8906 38.5273 92.8906C39.5586 92.8906 40.332 92.6836 40.8477 92.2695C41.3711 91.8477 41.6328 91.293 41.6328 90.6055ZM60.7578 86.9141C60.7578 88.5312 60.5 89.9336 59.9844 91.1211C59.4766 92.3008 58.7617 93.2383 57.8398 93.9336L60.7695 96.2188L58.8477 97.9531L55.2148 95.082C54.7383 95.1836 54.2266 95.2344 53.6797 95.2344C52.3047 95.2344 51.0742 94.8984 49.9883 94.2266C48.9102 93.5469 48.0742 92.582 47.4805 91.332C46.8945 90.082 46.5977 88.6406 46.5898 87.0078V86.0469C46.5898 84.3828 46.8828 82.9141 47.4688 81.6406C48.0625 80.3672 48.8945 79.3945 49.9648 78.7227C51.043 78.043 52.2734 77.7031 53.6562 77.7031C55.0625 77.7031 56.3008 78.0391 57.3711 78.7109C58.4492 79.375 59.2812 80.3359 59.8672 81.5938C60.4531 82.8438 60.75 84.3008 60.7578 85.9648V86.9141ZM57.7812 86.0234C57.7812 84.1016 57.4219 82.6445 56.7031 81.6523C55.9844 80.6602 54.9688 80.1641 53.6562 80.1641C52.3828 80.1641 51.3828 80.668 50.6562 81.6758C49.9375 82.6758 49.5703 84.0898 49.5547 85.918V86.9141C49.5547 88.7578 49.9141 90.1992 50.6328 91.2383C51.3594 92.2773 52.375 92.7969 53.6797 92.7969C55 92.7969 56.0117 92.2969 56.7148 91.2969C57.4258 90.2969 57.7812 88.8359 57.7812 86.9141V86.0234ZM66.7344 92.6328H74.4805V95H63.7695V77.9375H66.7344V92.6328Z" fill="black"/>
</svg>
