<svg width="104" height="134" viewBox="0 0 104 134" fill="none" xmlns="http://www.w3.org/2000/svg">
<path d="M2 60.5C10.5915 60.5 24 60.5 24 60.5M102 60.5L74 60.5M2 111.5H102M24 60.5C26.3333 43.3333 46 13.7 102 30.5M24 60.5L74 60.5M74 60.5C75.5 42.3333 65.5 -4.85778e-06 22 2M12 132H92C97.5228 132 102 127.523 102 122V12C102 6.47715 97.5228 2 92 2H12C6.47715 2 2 6.47715 2 12V122C2 127.523 6.47716 132 12 132Z" stroke="black" stroke-width="3" stroke-linejoin="round"/>
<path d="M21.3223 82.4414H18.2188V91H16.5029V82.4414H13.4268V81.0469H21.3223V82.4414ZM24.46 91H22.7373V81.0469H24.46V91ZM28.3154 87.3018V91H26.5859V81.0469H30.3936C31.5055 81.0469 32.3874 81.3363 33.0391 81.915C33.6953 82.4938 34.0234 83.2594 34.0234 84.2119C34.0234 85.1872 33.7021 85.946 33.0596 86.4883C32.4215 87.0306 31.526 87.3018 30.373 87.3018H28.3154ZM28.3154 85.9141H30.3936C31.0088 85.9141 31.4782 85.7705 31.8018 85.4834C32.1253 85.1917 32.2871 84.7725 32.2871 84.2256C32.2871 83.6878 32.123 83.2594 31.7949 82.9404C31.4668 82.6169 31.0156 82.4505 30.4414 82.4414H28.3154V85.9141ZM43.4844 86.2832C43.4844 87.2585 43.3158 88.1152 42.9785 88.8535C42.6413 89.5872 42.1582 90.1523 41.5293 90.5488C40.9049 90.9408 40.1849 91.1367 39.3691 91.1367C38.5625 91.1367 37.8424 90.9408 37.209 90.5488C36.5801 90.1523 36.0924 89.5895 35.7461 88.8604C35.4043 88.1312 35.2311 87.2904 35.2266 86.3379V85.7773C35.2266 84.8066 35.3975 83.9499 35.7393 83.207C36.0856 82.4642 36.571 81.8968 37.1953 81.5049C37.8242 81.1084 38.5443 80.9102 39.3555 80.9102C40.1667 80.9102 40.8844 81.1061 41.5088 81.498C42.1377 81.8854 42.623 82.446 42.9648 83.1797C43.3066 83.9089 43.4798 84.7588 43.4844 85.7295V86.2832ZM41.7549 85.7637C41.7549 84.6608 41.5452 83.8154 41.126 83.2275C40.7113 82.6396 40.1211 82.3457 39.3555 82.3457C38.6081 82.3457 38.0225 82.6396 37.5986 83.2275C37.1794 83.8109 36.9652 84.638 36.9561 85.709V86.2832C36.9561 87.377 37.168 88.2223 37.5918 88.8193C38.0202 89.4163 38.6126 89.7148 39.3691 89.7148C40.1348 89.7148 40.7227 89.4232 41.1328 88.8398C41.5475 88.2565 41.7549 87.4043 41.7549 86.2832V85.7637ZM52.8359 89.708C52.4759 90.1774 51.9769 90.5329 51.3389 90.7744C50.7008 91.016 49.9762 91.1367 49.165 91.1367C48.3311 91.1367 47.5928 90.9476 46.9502 90.5693C46.3076 90.1911 45.8109 89.651 45.46 88.9492C45.1136 88.2428 44.9336 87.4202 44.9199 86.4814V85.7021C44.9199 84.1982 45.2799 83.0247 46 82.1816C46.7201 81.334 47.7249 80.9102 49.0146 80.9102C50.1221 80.9102 51.0016 81.1836 51.6533 81.7305C52.305 82.2773 52.6969 83.0658 52.8291 84.0957H51.1338C50.9424 82.8971 50.2474 82.2979 49.0488 82.2979C48.2741 82.2979 47.6839 82.5781 47.2783 83.1387C46.8773 83.6947 46.6699 84.5127 46.6562 85.5928V86.3584C46.6562 87.4339 46.8818 88.2702 47.333 88.8672C47.7887 89.4596 48.4199 89.7559 49.2266 89.7559C50.1107 89.7559 50.7396 89.5553 51.1133 89.1543V87.2061H49.0625V85.8936H52.8359V89.708ZM58.3936 87.165H56.4658V91H54.7363V81.0469H58.2363C59.3848 81.0469 60.2712 81.3044 60.8955 81.8193C61.5199 82.3343 61.832 83.0794 61.832 84.0547C61.832 84.7201 61.6702 85.2783 61.3467 85.7295C61.0277 86.1761 60.5811 86.5202 60.0068 86.7617L62.2422 90.9111V91H60.3896L58.3936 87.165ZM56.4658 85.7773H58.2432C58.8265 85.7773 59.2822 85.6315 59.6104 85.3398C59.9385 85.0436 60.1025 84.6403 60.1025 84.1299C60.1025 83.5967 59.9499 83.1842 59.6445 82.8926C59.3438 82.6009 58.8926 82.4505 58.291 82.4414H56.4658V85.7773ZM69.0439 88.6826H65.1885L64.3818 91H62.584L66.3438 81.0469H67.8955L71.6621 91H69.8574L69.0439 88.6826ZM65.6738 87.2881H68.5586L67.1162 83.1592L65.6738 87.2881ZM78.5322 86.7822H74.5264V91H72.7969V81.0469H79.1201V82.4414H74.5264V85.4014H78.5322V86.7822ZM82.3193 91H80.5967V81.0469H82.3193V91ZM90.1396 88.6826H86.2842L85.4775 91H83.6797L87.4395 81.0469H88.9912L92.7578 91H90.9531L90.1396 88.6826ZM86.7695 87.2881H89.6543L88.2119 83.1592L86.7695 87.2881Z" fill="black"/>
</svg>
