<svg width="104" height="134" viewBox="0 0 104 134" fill="none" xmlns="http://www.w3.org/2000/svg">
<path d="M2 60.5C10.5915 60.5 24 60.5 24 60.5M102 60.5L74 60.5M2 111.5H102M24 60.5C26.3333 43.3333 46 13.7 102 30.5M24 60.5L74 60.5M74 60.5C75.5 42.3333 65.5 -4.85778e-06 22 2M12 132H92C97.5228 132 102 127.523 102 122V12C102 6.47715 97.5228 2 92 2H12C6.47715 2 2 6.47715 2 12V122C2 127.523 6.47716 132 12 132Z" stroke="black" stroke-width="3" stroke-linejoin="round"/>
<path d="M21.5527 80.2031V88.7549C21.5527 90.1143 21.1162 91.1924 20.2432 91.9893C19.376 92.7803 18.2188 93.1758 16.7715 93.1758C15.3066 93.1758 14.1436 92.7861 13.2822 92.0068C12.4209 91.2217 11.9902 90.1348 11.9902 88.7461V80.2031H14.2051V88.7637C14.2051 89.6191 14.4219 90.2725 14.8555 90.7236C15.2891 91.1748 15.9277 91.4004 16.7715 91.4004C18.4824 91.4004 19.3379 90.498 19.3379 88.6934V80.2031H21.5527ZM26.2812 93H24.0664V80.2031H26.2812V93ZM33.4971 93V80.2031H37.2764C38.4072 80.2031 39.4092 80.4551 40.2822 80.959C41.1611 81.4629 41.8408 82.1777 42.3213 83.1035C42.8018 84.0293 43.042 85.0898 43.042 86.2852V86.9268C43.042 88.1396 42.7988 89.2061 42.3125 90.126C41.832 91.0459 41.1436 91.7549 40.2471 92.2529C39.3564 92.751 38.334 93 37.1797 93H33.4971ZM35.7207 81.9961V91.2246H37.1709C38.3369 91.2246 39.2305 90.8613 39.8516 90.1348C40.4785 89.4023 40.7979 88.3535 40.8096 86.9883V86.2764C40.8096 84.8877 40.5078 83.8271 39.9043 83.0947C39.3008 82.3623 38.4248 81.9961 37.2764 81.9961H35.7207ZM52.7363 87.2871H47.4805V91.2246H53.624V93H45.2568V80.2031H53.5625V81.9961H47.4805V85.5293H52.7363V87.2871ZM62.123 89.7041C62.123 89.1416 61.9238 88.708 61.5254 88.4033C61.1328 88.0986 60.4209 87.791 59.3896 87.4805C58.3584 87.1699 57.5381 86.8242 56.9287 86.4434C55.7627 85.7109 55.1797 84.7559 55.1797 83.5781C55.1797 82.5469 55.5986 81.6973 56.4365 81.0293C57.2803 80.3613 58.373 80.0273 59.7148 80.0273C60.6055 80.0273 61.3994 80.1914 62.0967 80.5195C62.7939 80.8477 63.3418 81.3164 63.7402 81.9258C64.1387 82.5293 64.3379 83.2002 64.3379 83.9385H62.123C62.123 83.2705 61.9121 82.749 61.4902 82.374C61.0742 81.9932 60.4766 81.8027 59.6973 81.8027C58.9707 81.8027 58.4053 81.958 58.001 82.2686C57.6025 82.5791 57.4033 83.0127 57.4033 83.5693C57.4033 84.0381 57.6201 84.4307 58.0537 84.7471C58.4873 85.0576 59.2021 85.3623 60.1982 85.6611C61.1943 85.9541 61.9941 86.291 62.5977 86.6719C63.2012 87.0469 63.6436 87.4805 63.9248 87.9727C64.2061 88.459 64.3467 89.0303 64.3467 89.6865C64.3467 90.7529 63.9365 91.6025 63.1162 92.2354C62.3018 92.8623 61.1943 93.1758 59.7939 93.1758C58.8682 93.1758 58.0156 93.0059 57.2363 92.666C56.4629 92.3203 55.8594 91.8457 55.4258 91.2422C54.998 90.6387 54.7842 89.9355 54.7842 89.1328H57.0078C57.0078 89.8594 57.248 90.4219 57.7285 90.8203C58.209 91.2188 58.8975 91.418 59.7939 91.418C60.5674 91.418 61.1475 91.2627 61.5342 90.9521C61.9268 90.6357 62.123 90.2197 62.123 89.7041ZM68.6445 93H66.4297V80.2031H68.6445V93ZM81.1865 91.3389C80.7236 91.9424 80.082 92.3994 79.2617 92.71C78.4414 93.0205 77.5098 93.1758 76.4668 93.1758C75.3945 93.1758 74.4453 92.9326 73.6191 92.4463C72.793 91.96 72.1543 91.2656 71.7031 90.3633C71.2578 89.4551 71.0264 88.3975 71.0088 87.1904V86.1885C71.0088 84.2549 71.4717 82.7461 72.3975 81.6621C73.3232 80.5723 74.6152 80.0273 76.2734 80.0273C77.6973 80.0273 78.8281 80.3789 79.666 81.082C80.5039 81.7852 81.0078 82.7988 81.1777 84.123H78.998C78.752 82.582 77.8584 81.8115 76.3174 81.8115C75.3213 81.8115 74.5625 82.1719 74.041 82.8926C73.5254 83.6074 73.2588 84.6592 73.2412 86.0479V87.0322C73.2412 88.415 73.5312 89.4902 74.1113 90.2578C74.6973 91.0195 75.5088 91.4004 76.5459 91.4004C77.6826 91.4004 78.4912 91.1426 78.9717 90.627V88.1221H76.335V86.4346H81.1865V91.3389ZM93.7812 93H91.5576L85.8535 83.9209V93H83.6299V80.2031H85.8535L91.5752 89.3174V80.2031H93.7812V93Z" fill="black"/>
</svg>
