<svg width="104" height="134" viewBox="0 0 104 134" fill="none" xmlns="http://www.w3.org/2000/svg">
<path d="M2 60.5C10.5915 60.5 24 60.5 24 60.5M102 60.5L74 60.5M2 111.5H102M24 60.5C26.3333 43.3333 46 13.7 102 30.5M24 60.5L74 60.5M74 60.5C75.5 42.3333 65.5 -4.85778e-06 22 2M12 132H92C97.5228 132 102 127.523 102 122V12C102 6.47715 97.5228 2 92 2H12C6.47715 2 2 6.47715 2 12V122C2 127.523 6.47716 132 12 132Z" stroke="black" stroke-width="3" stroke-linejoin="round"/>
<path d="M26.0869 81.0469V87.6982C26.0869 88.7555 25.7474 89.5941 25.0684 90.2139C24.3939 90.8291 23.4938 91.1367 22.3682 91.1367C21.2288 91.1367 20.3242 90.8337 19.6543 90.2275C18.9844 89.6169 18.6494 88.7715 18.6494 87.6914V81.0469H20.3721V87.7051C20.3721 88.3704 20.5407 88.8786 20.8779 89.2295C21.2152 89.5804 21.7119 89.7559 22.3682 89.7559C23.6989 89.7559 24.3643 89.054 24.3643 87.6504V81.0469H26.0869ZM31.3643 84.6426L33.4561 81.0469H35.4521L32.4443 85.9824L35.5205 91H33.5039L31.3643 87.3496L29.2178 91H27.208L30.291 85.9824L27.2764 81.0469H29.2725L31.3643 84.6426ZM40.2852 91V81.0469H43.2246C44.1042 81.0469 44.8835 81.2428 45.5625 81.6348C46.2461 82.0267 46.7747 82.5827 47.1484 83.3027C47.5221 84.0228 47.709 84.8477 47.709 85.7773V86.2764C47.709 87.2197 47.5199 88.0492 47.1416 88.7646C46.7679 89.4801 46.2324 90.0316 45.5352 90.4189C44.8424 90.8063 44.0472 91 43.1494 91H40.2852ZM42.0146 82.4414V89.6191H43.1426C44.0495 89.6191 44.7445 89.3366 45.2275 88.7715C45.7152 88.2018 45.9635 87.3861 45.9727 86.3242V85.7705C45.9727 84.6904 45.738 83.8656 45.2686 83.2959C44.7992 82.7262 44.1178 82.4414 43.2246 82.4414H42.0146ZM55.249 86.5566H51.1611V89.6191H55.9395V91H49.4316V81.0469H55.8916V82.4414H51.1611V85.1895H55.249V86.5566ZM62.5498 88.4365C62.5498 87.999 62.3949 87.6618 62.085 87.4248C61.7796 87.1878 61.2259 86.9486 60.4238 86.707C59.6217 86.4655 58.9837 86.1966 58.5098 85.9004C57.6029 85.3307 57.1494 84.5879 57.1494 83.6719C57.1494 82.8698 57.4753 82.209 58.127 81.6895C58.7832 81.1699 59.6331 80.9102 60.6768 80.9102C61.3695 80.9102 61.987 81.0378 62.5293 81.293C63.0716 81.5482 63.4977 81.9128 63.8076 82.3867C64.1175 82.8561 64.2725 83.3779 64.2725 83.9521H62.5498C62.5498 83.4326 62.3857 83.027 62.0576 82.7354C61.734 82.4391 61.2692 82.291 60.6631 82.291C60.098 82.291 59.6582 82.4118 59.3438 82.6533C59.0339 82.8949 58.8789 83.2321 58.8789 83.665C58.8789 84.0296 59.0475 84.335 59.3848 84.5811C59.722 84.8226 60.278 85.0596 61.0527 85.292C61.8275 85.5199 62.4495 85.7819 62.9189 86.0781C63.3883 86.3698 63.7324 86.707 63.9512 87.0898C64.1699 87.4681 64.2793 87.9124 64.2793 88.4229C64.2793 89.2523 63.9603 89.9131 63.3223 90.4053C62.6888 90.8929 61.8275 91.1367 60.7383 91.1367C60.0182 91.1367 59.3551 91.0046 58.749 90.7402C58.1475 90.4714 57.6781 90.1022 57.3408 89.6328C57.0081 89.1634 56.8418 88.6165 56.8418 87.9922H58.5713C58.5713 88.5573 58.7581 88.9948 59.1318 89.3047C59.5055 89.6146 60.041 89.7695 60.7383 89.7695C61.3398 89.7695 61.791 89.6488 62.0918 89.4072C62.3971 89.1611 62.5498 88.8376 62.5498 88.4365ZM67.6221 91H65.8994V81.0469H67.6221V91ZM77.377 89.708C77.0169 90.1774 76.5179 90.5329 75.8799 90.7744C75.2419 91.016 74.5173 91.1367 73.7061 91.1367C72.8721 91.1367 72.1338 90.9476 71.4912 90.5693C70.8486 90.1911 70.3519 89.651 70.001 88.9492C69.6546 88.2428 69.4746 87.4202 69.4609 86.4814V85.7021C69.4609 84.1982 69.821 83.0247 70.541 82.1816C71.2611 81.334 72.266 80.9102 73.5557 80.9102C74.6631 80.9102 75.5426 81.1836 76.1943 81.7305C76.846 82.2773 77.238 83.0658 77.3701 84.0957H75.6748C75.4834 82.8971 74.7884 82.2979 73.5898 82.2979C72.8151 82.2979 72.2249 82.5781 71.8193 83.1387C71.4183 83.6947 71.2109 84.5127 71.1973 85.5928V86.3584C71.1973 87.4339 71.4229 88.2702 71.874 88.8672C72.3298 89.4596 72.9609 89.7559 73.7676 89.7559C74.6517 89.7559 75.2806 89.5553 75.6543 89.1543V87.2061H73.6035V85.8936H77.377V89.708ZM87.1729 91H85.4434L81.0068 83.9385V91H79.2773V81.0469H81.0068L85.457 88.1357V81.0469H87.1729V91Z" fill="black"/>
</svg>
