<svg width="720" height="71" viewBox="0 0 720 71" fill="none" xmlns="http://www.w3.org/2000/svg">
<path d="M46.25 53.6406C46.25 50.7344 45.5625 48.2812 44.1875 46.2812C42.8438 44.25 40.7031 42.4688 37.7656 40.9375C34.8594 39.375 30.4531 37.7812 24.5469 36.1562C18.6406 34.5312 14.2031 32.8906 11.2344 31.2344C8.29688 29.5781 6.14062 27.6562 4.76562 25.4688C3.39062 23.2812 2.70312 20.625 2.70312 17.5C2.70312 12.5312 4.79688 8.51562 8.98438 5.45312C13.1719 2.35938 18.625 0.8125 25.3438 0.8125C29.7188 0.8125 33.6406 1.67187 37.1094 3.39062C40.6094 5.07812 43.3125 7.46875 45.2188 10.5625C47.125 13.625 48.0781 17.0937 48.0781 20.9688H45.5469C45.5469 15.875 43.6719 11.6719 39.9219 8.35938C36.1719 5.01563 31.3125 3.34375 25.3438 3.34375C19.3438 3.34375 14.4844 4.6875 10.7656 7.375C7.07812 10.0313 5.23438 13.375 5.23438 17.4062C5.23438 21.5 6.84375 24.7969 10.0625 27.2969C13.2812 29.7969 18.5938 32.0156 26 33.9531C33.4062 35.8594 38.8281 38.0781 42.2656 40.6094C46.6406 43.8281 48.8281 48.1406 48.8281 53.5469C48.8281 56.9844 47.8594 60.0312 45.9219 62.6875C43.9844 65.3125 41.2344 67.3438 37.6719 68.7812C34.1094 70.2188 30.1094 70.9375 25.6719 70.9375C20.7344 70.9375 16.2969 70.125 12.3594 68.5C8.42188 66.8438 5.45312 64.5 3.45312 61.4688C1.48438 58.4375 0.5 54.8594 0.5 50.7344H3.03125C3.03125 56.3281 5.125 60.6719 9.3125 63.7656C13.5 66.8594 18.9531 68.4062 25.6719 68.4062C31.6406 68.4062 36.5625 67.0469 40.4375 64.3281C44.3125 61.5781 46.25 58.0156 46.25 53.6406ZM98.1406 49.6094H64.7188L57.125 70H54.3594L79.9062 1.75H83L108.547 70H105.781L98.1406 49.6094ZM65.6562 47.0781H97.2031L81.4531 4.79688L65.6562 47.0781ZM168.734 70H166.203L122.141 6.0625V70H119.562V1.75H122.141L166.203 65.5469V1.75H168.734V70ZM187.531 70V1.75H206.422C211.703 1.75 216.484 3 220.766 5.5C225.047 8 228.406 11.5156 230.844 16.0469C233.281 20.5469 234.531 25.5938 234.594 31.1875V40.0469C234.594 45.7344 233.391 50.8594 230.984 55.4219C228.609 59.9844 225.281 63.5469 221 66.1094C216.719 68.6719 211.938 69.9688 206.656 70H187.531ZM190.062 4.28125V67.4688H206.422C211.203 67.4688 215.547 66.3125 219.453 64C223.391 61.6562 226.469 58.4062 228.688 54.25C230.906 50.0625 232.031 45.4219 232.062 40.3281V31.5625C232.062 26.4688 230.969 21.8438 228.781 17.6875C226.625 13.5312 223.594 10.2812 219.688 7.9375C215.812 5.5625 211.516 4.34375 206.797 4.28125H190.062ZM287.094 36.1562H252.875V67.4688H291.875V70H250.344V1.75H291.875V4.28125H252.875V33.625H287.094V36.1562ZM330.969 40.7969H307.297V70H304.766V1.75H326.516C333.359 1.75 338.797 3.51563 342.828 7.04688C346.891 10.5781 348.922 15.375 348.922 21.4375C348.922 26.0938 347.469 30.1719 344.562 33.6719C341.688 37.1406 338.016 39.2969 333.547 40.1406L351.781 69.3438V70H349.109L330.969 40.7969ZM307.297 38.2656H328.812C334.062 38.2656 338.297 36.6719 341.516 33.4844C344.766 30.2969 346.391 26.2812 346.391 21.4375C346.391 16.125 344.594 11.9375 341 8.875C337.438 5.8125 332.547 4.28125 326.328 4.28125H307.297V38.2656ZM439.719 61.0469C437.406 64.3594 434.172 66.8438 430.016 68.5C425.891 70.125 421.078 70.9375 415.578 70.9375C410.016 70.9375 405.078 69.6406 400.766 67.0469C396.453 64.4219 393.109 60.7031 390.734 55.8906C388.391 51.0781 387.188 45.5 387.125 39.1562V33.2031C387.125 22.9219 389.516 14.9531 394.297 9.29688C399.109 3.64062 405.859 0.8125 414.547 0.8125C421.672 0.8125 427.406 2.64062 431.75 6.29688C436.094 9.92187 438.75 15.0781 439.719 21.7656H430.719C429.031 12.7344 423.656 8.21875 414.594 8.21875C408.562 8.21875 403.984 10.3437 400.859 14.5938C397.766 18.8125 396.203 24.9375 396.172 32.9688V38.5469C396.172 46.2031 397.922 52.2969 401.422 56.8281C404.922 61.3281 409.656 63.5781 415.625 63.5781C419 63.5781 421.953 63.2031 424.484 62.4531C427.016 61.7031 429.109 60.4375 430.766 58.6562V43.3281H414.969V36.0156H439.719V61.0469ZM492.453 52.1875H463.859L457.438 70H448.156L474.219 1.75H482.094L508.203 70H498.969L492.453 52.1875ZM466.578 44.7812H489.781L478.156 12.8594L466.578 44.7812ZM542.422 42.3906H526.391V70H517.344V1.75H539.938C547.625 1.75 553.531 3.5 557.656 7C561.812 10.5 563.891 15.5937 563.891 22.2812C563.891 26.5312 562.734 30.2344 560.422 33.3906C558.141 36.5469 554.953 38.9062 550.859 40.4688L566.891 69.4375V70H557.234L542.422 42.3906ZM526.391 35.0312H540.219C544.688 35.0312 548.234 33.875 550.859 31.5625C553.516 29.25 554.844 26.1562 554.844 22.2812C554.844 18.0625 553.578 14.8281 551.047 12.5781C548.547 10.3281 544.922 9.1875 540.172 9.15625H526.391V35.0312ZM626.75 48.3438C625.906 55.5625 623.234 61.1406 618.734 65.0781C614.266 68.9844 608.312 70.9375 600.875 70.9375C592.812 70.9375 586.344 68.0469 581.469 62.2656C576.625 56.4844 574.203 48.75 574.203 39.0625V32.5C574.203 26.1562 575.328 20.5781 577.578 15.7656C579.859 10.9531 583.078 7.26563 587.234 4.70312C591.391 2.10938 596.203 0.8125 601.672 0.8125C608.922 0.8125 614.734 2.84375 619.109 6.90625C623.484 10.9375 626.031 16.5312 626.75 23.6875H617.703C616.922 18.25 615.219 14.3125 612.594 11.875C610 9.4375 606.359 8.21875 601.672 8.21875C595.922 8.21875 591.406 10.3437 588.125 14.5938C584.875 18.8438 583.25 24.8906 583.25 32.7344V39.3438C583.25 46.75 584.797 52.6406 587.891 57.0156C590.984 61.3906 595.312 63.5781 600.875 63.5781C605.875 63.5781 609.703 62.4531 612.359 60.2031C615.047 57.9219 616.828 53.9688 617.703 48.3438H626.75ZM648.734 70H639.734V1.75H648.734V70ZM703.766 52.1875H675.172L668.75 70H659.469L685.531 1.75H693.406L719.516 70H710.281L703.766 52.1875ZM677.891 44.7812H701.094L689.469 12.8594L677.891 44.7812Z" fill="#F2F2F2"/>
</svg>
