<svg width="856" height="352" viewBox="0 0 856 352" fill="none" xmlns="http://www.w3.org/2000/svg">
<path d="M855.292 2C855.292 1.17157 854.62 0.5 853.792 0.5C852.963 0.5 852.292 1.17157 852.292 2H855.292ZM853.792 202.547H852.292V202.591L852.294 202.636L853.792 202.547ZM737.679 339.991L737.789 341.487L737.679 339.991ZM0.955187 338.914C0.360777 339.491 0.346692 340.441 0.923726 341.036L10.327 350.722C10.9041 351.316 11.8537 351.331 12.4481 350.753C13.0425 350.176 13.0566 349.227 12.4796 348.632L4.12109 340.022L12.7313 331.664C13.3257 331.087 13.3398 330.137 12.7627 329.543C12.1857 328.948 11.2361 328.934 10.6417 329.511L0.955187 338.914ZM4.90898 341.534C5.73732 341.546 6.41871 340.884 6.43091 340.056C6.44311 339.228 5.78151 338.546 4.95317 338.534L4.90898 341.534ZM10.907 338.621C10.0787 338.609 9.39741 339.271 9.38538 340.099C9.37334 340.928 10.0351 341.609 10.8634 341.621L10.907 338.621ZM16.9381 341.709C17.7664 341.721 18.4476 341.059 18.4594 340.23C18.4713 339.402 17.8094 338.721 16.9811 338.709L16.9381 341.709ZM23.0914 338.796C22.2631 338.784 21.582 339.446 21.5703 340.275C21.5586 341.103 22.2206 341.784 23.049 341.796L23.0914 338.796ZM28.9796 341.879C29.8079 341.891 30.4888 341.229 30.5004 340.4C30.5119 339.572 29.8498 338.891 29.0215 338.879L28.9796 341.879ZM35.0505 338.963C34.2221 338.952 33.5413 339.614 33.5299 340.442C33.5185 341.271 34.1807 341.951 35.0091 341.963L35.0505 338.963ZM41.1351 342.047C41.9635 342.058 42.6441 341.396 42.6554 340.567C42.6667 339.739 42.0043 339.058 41.176 339.047L41.1351 342.047ZM47.1595 339.128C46.3311 339.117 45.6506 339.779 45.6394 340.608C45.6283 341.436 46.2908 342.117 47.1191 342.128L47.1595 339.128ZM53.1022 342.208C53.9305 342.219 54.611 341.556 54.622 340.728C54.633 339.899 53.9704 339.219 53.1421 339.208L53.1022 342.208ZM59.2051 339.288C58.3768 339.277 57.6964 339.94 57.6855 340.768C57.6747 341.597 58.3374 342.277 59.1657 342.288L59.2051 339.288ZM65.2903 342.368C66.1187 342.379 66.7989 341.716 66.8096 340.887C66.8204 340.059 66.1576 339.379 65.3292 339.368L65.2903 342.368ZM71.2686 339.445C70.4403 339.434 69.7601 340.097 69.7495 340.925C69.7389 341.754 70.4018 342.434 71.2302 342.444L71.2686 339.445ZM77.2379 342.521C78.0662 342.531 78.7463 341.868 78.7568 341.04C78.7673 340.212 78.1042 339.532 77.2759 339.521L77.2379 342.521ZM83.3492 339.598C82.5208 339.587 81.8409 340.25 81.8305 341.079C81.8202 341.907 82.4833 342.587 83.3117 342.597L83.3492 339.598ZM89.3976 342.673C90.2259 342.683 90.9058 342.02 90.916 341.192C90.9263 340.363 90.263 339.684 89.4347 339.673L89.3976 342.673ZM95.3943 339.747C94.566 339.737 93.8863 340.4 93.8761 341.228C93.866 342.057 94.5293 342.736 95.3577 342.746L95.3943 339.747ZM101.374 342.82C102.202 342.83 102.882 342.166 102.892 341.338C102.902 340.509 102.239 339.83 101.41 339.82L101.374 342.82ZM107.48 339.893C106.652 339.883 105.973 340.546 105.963 341.375C105.953 342.203 106.616 342.883 107.445 342.892L107.48 339.893ZM113.523 342.965C114.352 342.974 115.031 342.311 115.041 341.482C115.051 340.654 114.387 339.975 113.559 339.965L113.523 342.965ZM119.528 340.035C118.699 340.025 118.02 340.689 118.01 341.517C118.001 342.345 118.664 343.025 119.493 343.034L119.528 340.035ZM125.508 343.104C126.337 343.114 127.016 342.45 127.026 341.621C127.035 340.793 126.371 340.114 125.543 340.104L125.508 343.104ZM131.604 340.174C130.775 340.164 130.096 340.828 130.087 341.656C130.077 342.485 130.741 343.164 131.569 343.173L131.604 340.174ZM137.659 343.242C138.487 343.251 139.166 342.587 139.176 341.759C139.185 340.931 138.521 340.252 137.693 340.242L137.659 343.242ZM143.665 340.309C142.837 340.3 142.158 340.964 142.149 341.792C142.139 342.621 142.804 343.3 143.632 343.309L143.665 340.309ZM149.643 343.375C150.472 343.384 151.151 342.72 151.16 341.891C151.169 341.063 150.505 340.384 149.676 340.375L149.643 343.375ZM155.724 340.441C154.896 340.432 154.217 341.096 154.208 341.925C154.199 342.753 154.864 343.432 155.692 343.441L155.724 340.441ZM161.776 343.506C162.605 343.515 163.283 342.85 163.292 342.022C163.301 341.194 162.637 340.515 161.808 340.506L161.776 343.506ZM167.806 340.57C166.978 340.561 166.299 341.225 166.291 342.054C166.282 342.882 166.946 343.561 167.775 343.57L167.806 340.57ZM173.781 343.632C174.609 343.641 175.287 342.976 175.296 342.148C175.305 341.32 174.64 340.641 173.812 340.632L173.781 343.632ZM179.848 340.695C179.019 340.686 178.341 341.351 178.332 342.179C178.324 343.008 178.989 343.686 179.817 343.694L179.848 340.695ZM185.882 343.756C186.711 343.764 187.389 343.1 187.397 342.271C187.406 341.443 186.741 340.765 185.913 340.756L185.882 343.756ZM191.949 340.817C191.121 340.809 190.443 341.473 190.434 342.302C190.426 343.13 191.091 343.808 191.919 343.817L191.949 340.817ZM197.921 343.876C198.749 343.884 199.427 343.219 199.436 342.391C199.444 341.562 198.779 340.884 197.95 340.876L197.921 343.876ZM203.976 340.935C203.147 340.927 202.469 341.592 202.461 342.42C202.453 343.248 203.118 343.927 203.947 343.935L203.976 340.935ZM209.996 343.993C210.824 344 211.502 343.335 211.51 342.507C211.518 341.678 210.853 341.001 210.025 340.993L209.996 343.993ZM216.092 341.05C215.264 341.042 214.586 341.707 214.578 342.536C214.57 343.364 215.236 344.042 216.064 344.05L216.092 341.05ZM222.064 344.106C222.892 344.113 223.57 343.448 223.577 342.619C223.585 341.791 222.92 341.113 222.091 341.106L222.064 344.106ZM228.109 341.161C227.281 341.153 226.603 341.819 226.596 342.647C226.588 343.475 227.254 344.153 228.082 344.161L228.109 341.161ZM234.119 344.215C234.947 344.222 235.625 343.557 235.632 342.728C235.64 341.9 234.974 341.223 234.146 341.215L234.119 344.215ZM240.199 341.269C239.37 341.261 238.693 341.927 238.686 342.755C238.678 343.584 239.344 344.261 240.172 344.269L240.199 341.269ZM246.206 344.321C247.034 344.328 247.712 343.662 247.719 342.834C247.726 342.006 247.06 341.328 246.232 341.321L246.206 344.321ZM252.247 341.373C251.418 341.366 250.741 342.031 250.734 342.86C250.727 343.688 251.393 344.365 252.221 344.372L252.247 341.373ZM258.25 344.423C259.078 344.43 259.755 343.764 259.762 342.936C259.769 342.107 259.103 341.43 258.275 341.423L258.25 344.423ZM264.315 341.473C263.486 341.466 262.809 342.132 262.803 342.961C262.796 343.789 263.462 344.466 264.29 344.473L264.315 341.473ZM270.342 344.522C271.171 344.528 271.848 343.862 271.854 343.034C271.861 342.205 271.195 341.528 270.366 341.522L270.342 344.522ZM276.384 341.569C275.556 341.563 274.879 342.229 274.872 343.058C274.866 343.886 275.532 344.563 276.36 344.569L276.384 341.569ZM282.386 344.616C283.214 344.622 283.891 343.956 283.897 343.128C283.904 342.299 283.237 341.623 282.409 341.616L282.386 344.616ZM288.441 341.662C287.613 341.656 286.936 342.322 286.93 343.151C286.924 343.979 287.59 344.656 288.419 344.662L288.441 341.662ZM294.458 344.707C295.287 344.713 295.963 344.046 295.969 343.218C295.975 342.389 295.309 341.713 294.48 341.707L294.458 344.707ZM300.517 341.751C299.689 341.745 299.012 342.411 299.006 343.24C299 344.068 299.667 344.745 300.495 344.751L300.517 341.751ZM306.523 344.793C307.351 344.799 308.027 344.132 308.033 343.304C308.039 342.476 307.372 341.799 306.544 341.793L306.523 344.793ZM312.574 341.835C311.745 341.83 311.069 342.497 311.064 343.325C311.058 344.153 311.725 344.829 312.553 344.835L312.574 341.835ZM318.586 344.876C319.415 344.881 320.091 344.214 320.096 343.386C320.102 342.557 319.435 341.881 318.606 341.876L318.586 344.876ZM324.64 341.916C323.812 341.91 323.136 342.577 323.131 343.406C323.125 344.234 323.792 344.91 324.621 344.915L324.64 341.916ZM330.655 344.954C331.484 344.959 332.16 344.292 332.165 343.464C332.17 342.635 331.503 341.959 330.674 341.954L330.655 344.954ZM336.708 341.992C335.879 341.987 335.203 342.654 335.198 343.482C335.193 344.311 335.861 344.986 336.689 344.992L336.708 341.992ZM342.721 345.028C343.55 345.033 344.225 344.365 344.23 343.537C344.235 342.708 343.567 342.033 342.739 342.028L342.721 345.028ZM348.768 342.063C347.939 342.058 347.264 342.726 347.259 343.554C347.254 344.383 347.922 345.058 348.75 345.063L348.768 342.063ZM354.779 345.097C355.607 345.102 356.283 344.434 356.287 343.605C356.292 342.777 355.624 342.102 354.795 342.097L354.779 345.097ZM360.837 342.13C360.009 342.126 359.334 342.794 359.329 343.622C359.325 344.45 359.993 345.126 360.821 345.13L360.837 342.13ZM366.858 345.162C367.686 345.166 368.361 344.498 368.366 343.669C368.37 342.841 367.702 342.166 366.873 342.162L366.858 345.162ZM372.902 342.192C372.074 342.188 371.399 342.856 371.395 343.685C371.391 344.513 372.059 345.188 372.887 345.192L372.902 342.192ZM378.909 345.221C379.737 345.225 380.412 344.557 380.416 343.728C380.42 342.9 379.751 342.225 378.923 342.221L378.909 345.221ZM384.958 342.249C384.13 342.245 383.455 342.914 383.452 343.742C383.448 344.571 384.116 345.245 384.945 345.249L384.958 342.249ZM390.991 345.276C391.82 345.279 392.494 344.611 392.498 343.782C392.501 342.954 391.833 342.28 391.004 342.276L390.991 345.276ZM397.039 342.301C396.21 342.298 395.536 342.967 395.533 343.795C395.529 344.624 396.198 345.298 397.026 345.301L397.039 342.301ZM403.049 345.325C403.877 345.328 404.551 344.659 404.555 343.831C404.558 343.003 403.889 342.328 403.06 342.325L403.049 345.325ZM409.068 342.348C408.24 342.345 407.566 343.014 407.563 343.842C407.56 344.671 408.229 345.345 409.058 345.348L409.068 342.348ZM415.118 345.369C415.946 345.372 416.62 344.702 416.623 343.874C416.625 343.046 415.956 342.372 415.128 342.369L415.118 345.369ZM421.173 342.389C420.344 342.386 419.67 343.056 419.668 343.884C419.665 344.712 420.335 345.386 421.163 345.389L421.173 342.389ZM427.191 345.407C428.02 345.409 428.693 344.74 428.696 343.911C428.698 343.083 428.028 342.409 427.2 342.407L427.191 345.407ZM433.209 342.424C432.381 342.422 431.707 343.091 431.705 343.92C431.703 344.748 432.373 345.422 433.201 345.424L433.209 342.424ZM439.234 345.439C440.062 345.441 440.735 344.771 440.737 343.943C440.739 343.114 440.069 342.441 439.241 342.439L439.234 345.439ZM445.301 342.453C444.472 342.451 443.799 343.121 443.798 343.949C443.796 344.778 444.466 345.451 445.294 345.453L445.301 342.453ZM451.333 345.465C452.161 345.466 452.834 344.796 452.835 343.967C452.837 343.139 452.167 342.466 451.338 342.465L451.333 345.465ZM457.352 342.475C456.523 342.474 455.851 343.144 455.849 343.973C455.848 344.801 456.519 345.474 457.347 345.475L457.352 342.475ZM463.339 345.484C464.167 345.485 464.84 344.814 464.841 343.985C464.842 343.157 464.171 342.485 463.343 342.484L463.339 345.484ZM469.422 342.49C468.593 342.49 467.921 343.161 467.92 343.989C467.92 344.817 468.591 345.49 469.419 345.49L469.422 342.49ZM475.471 345.496C476.299 345.496 476.971 344.825 476.972 343.997C476.972 343.168 476.301 342.496 475.473 342.496L475.471 345.496ZM481.494 342.499C480.665 342.498 479.993 343.17 479.993 343.998C479.993 344.827 480.664 345.498 481.493 345.499L481.494 342.499ZM487.484 345.5C488.312 345.5 488.984 344.828 488.984 344C488.984 343.172 488.313 342.5 487.484 342.5L487.484 345.5ZM493.537 342.499C492.708 342.5 492.037 343.171 492.037 344C492.037 344.828 492.709 345.5 493.537 345.499L493.537 342.499ZM499.605 345.496C500.433 345.496 501.104 344.824 501.104 343.996C501.103 343.167 500.431 342.496 499.603 342.496L499.605 345.496ZM505.633 342.492C504.805 342.492 504.134 343.165 504.135 343.993C504.135 344.822 504.808 345.492 505.636 345.492L505.633 342.492ZM511.63 345.485C512.458 345.484 513.129 344.811 513.128 343.983C513.126 343.154 512.454 342.484 511.626 342.485L511.63 345.485ZM517.648 342.475C516.82 342.477 516.149 343.15 516.151 343.978C516.152 344.806 516.825 345.477 517.653 345.475L517.648 342.475ZM523.737 345.464C524.566 345.462 525.236 344.789 525.234 343.96C525.232 343.132 524.559 342.462 523.731 342.464L523.737 345.464ZM529.769 342.45C528.941 342.452 528.271 343.125 528.273 343.953C528.275 344.782 528.949 345.452 529.777 345.45L529.769 342.45ZM535.771 345.433C536.6 345.431 537.269 344.757 537.267 343.929C537.264 343.1 536.591 342.431 535.763 342.433L535.771 345.433ZM541.762 342.414C540.934 342.417 540.264 343.091 540.267 343.919C540.27 344.748 540.944 345.417 541.772 345.414L541.762 342.414ZM547.871 345.392C548.699 345.389 549.368 344.715 549.365 343.886C549.362 343.058 548.688 342.389 547.859 342.392L547.871 345.392ZM553.903 342.367C553.075 342.371 552.406 343.045 552.41 343.874C552.413 344.702 553.088 345.371 553.916 345.367L553.903 342.367ZM559.907 345.34C560.735 345.336 561.403 344.661 561.399 343.832C561.395 343.004 560.72 342.336 559.892 342.34L559.907 345.34ZM565.886 342.309C565.058 342.314 564.39 342.989 564.394 343.817C564.399 344.646 565.074 345.314 565.902 345.309L565.886 342.309ZM572.01 345.275C572.839 345.27 573.506 344.594 573.501 343.766C573.497 342.937 572.821 342.27 571.993 342.275L572.01 345.275ZM578.034 342.237C577.206 342.243 576.538 342.919 576.544 343.747C576.549 344.575 577.225 345.243 578.053 345.237L578.034 342.237ZM584.03 345.197C584.858 345.191 585.525 344.515 585.519 343.686C585.513 342.858 584.837 342.191 584.009 342.197L584.03 345.197ZM590.028 342.152C589.2 342.159 588.534 342.836 588.54 343.664C588.546 344.492 589.223 345.159 590.051 345.152L590.028 342.152ZM596.157 345.103C596.985 345.096 597.651 344.419 597.644 343.591C597.637 342.762 596.96 342.096 596.132 342.103L596.157 345.103ZM602.156 342.051C601.328 342.058 600.662 342.736 600.67 343.564C600.677 344.393 601.355 345.058 602.184 345.051L602.156 342.051ZM608.129 344.995C608.957 344.987 609.622 344.308 609.614 343.48C609.606 342.652 608.928 341.987 608.1 341.995L608.129 344.995ZM614.191 341.933C613.362 341.941 612.698 342.62 612.707 343.449C612.715 344.277 613.394 344.941 614.222 344.933L614.191 341.933ZM620.304 344.866C621.133 344.856 621.796 344.177 621.787 343.348C621.777 342.52 621.098 341.856 620.27 341.866L620.304 344.866ZM626.252 341.795C625.423 341.805 624.76 342.485 624.77 343.313C624.781 344.141 625.46 344.805 626.289 344.794L626.252 341.795ZM632.264 344.718C633.093 344.707 633.755 344.027 633.744 343.198C633.733 342.37 633.053 341.707 632.224 341.718L632.264 344.718ZM638.36 341.634C637.531 341.646 636.869 342.327 636.881 343.155C636.893 343.983 637.574 344.645 638.403 344.633L638.36 341.634ZM644.423 344.544C645.251 344.531 645.912 343.849 645.9 343.021C645.887 342.193 645.205 341.532 644.377 341.544L644.423 344.544ZM650.273 341.45C649.444 341.464 648.784 342.146 648.798 342.975C648.811 343.803 649.494 344.463 650.322 344.45L650.273 341.45ZM656.496 344.343C657.324 344.328 657.984 343.645 657.969 342.817C657.954 341.988 657.271 341.329 656.442 341.344L656.496 344.343ZM662.481 341.231C661.653 341.247 660.995 341.932 661.011 342.76C661.027 343.588 661.711 344.247 662.539 344.231L662.481 341.231ZM668.433 344.113C669.261 344.095 669.919 343.41 669.902 342.582C669.884 341.753 669.199 341.096 668.371 341.113L668.433 344.113ZM674.536 340.98C673.708 340.998 673.052 341.685 673.071 342.513C673.089 343.341 673.776 343.997 674.604 343.979L674.536 340.98ZM680.64 343.837C681.468 343.816 682.123 343.129 682.103 342.3C682.082 341.472 681.394 340.817 680.566 340.838L680.64 343.837ZM686.45 340.688C685.622 340.71 684.968 341.399 684.99 342.227C685.012 343.055 685.701 343.708 686.529 343.686L686.45 340.688ZM692.733 343.514C693.561 343.49 694.213 342.799 694.188 341.971C694.164 341.143 693.474 340.491 692.645 340.515L692.733 343.514ZM698.601 340.334C697.773 340.36 697.123 341.053 697.149 341.881C697.175 342.709 697.868 343.359 698.696 343.332L698.601 340.334ZM704.748 343.13C705.576 343.101 706.224 342.406 706.195 341.578C706.166 340.751 705.471 340.103 704.643 340.132L704.748 343.13ZM710.711 339.908C709.884 339.94 709.239 340.637 709.271 341.465C709.303 342.293 710 342.938 710.828 342.905L710.711 339.908ZM716.752 342.662C717.58 342.626 718.221 341.925 718.185 341.098C718.149 340.27 717.449 339.628 716.622 339.664L716.752 342.662ZM722.769 339.379C721.942 339.42 721.304 340.124 721.345 340.952C721.386 341.779 722.09 342.417 722.918 342.376L722.769 339.379ZM728.834 342.063C729.661 342.016 730.293 341.307 730.246 340.48C730.2 339.653 729.491 339.02 728.664 339.067L728.834 342.063ZM734.767 338.691C733.94 338.747 733.315 339.462 733.371 340.288C733.426 341.115 734.141 341.74 734.968 341.685L734.767 338.691ZM740.81 341.238C741.635 341.163 742.243 340.433 742.168 339.608C742.092 338.783 741.363 338.176 740.538 338.251L740.81 341.238ZM746.327 337.618C745.505 337.723 744.924 338.475 745.029 339.296C745.134 340.118 745.885 340.699 746.707 340.594L746.327 337.618ZM752.657 339.718C753.474 339.581 754.026 338.808 753.889 337.991C753.752 337.174 752.979 336.622 752.162 336.759L752.657 339.718ZM757.915 335.676C757.105 335.846 756.585 336.641 756.755 337.452C756.925 338.263 757.72 338.783 758.53 338.613L757.915 335.676ZM764.33 337.27C765.132 337.065 765.618 336.249 765.414 335.446C765.209 334.643 764.393 334.158 763.59 334.362L764.33 337.27ZM769.242 332.789C768.449 333.03 768.001 333.867 768.241 334.66C768.481 335.453 769.319 335.901 770.112 335.66L769.242 332.789ZM775.81 333.787C776.591 333.51 776.999 332.652 776.721 331.871C776.444 331.091 775.586 330.683 774.806 330.96L775.81 333.787ZM780.258 328.872C779.492 329.187 779.127 330.064 779.442 330.83C779.757 331.596 780.634 331.961 781.4 331.646L780.258 328.872ZM786.87 329.232C787.62 328.878 787.94 327.984 787.586 327.235C787.233 326.486 786.339 326.165 785.59 326.519L786.87 329.232ZM790.798 323.892C790.068 324.284 789.795 325.194 790.187 325.923C790.58 326.653 791.489 326.926 792.219 326.534L790.798 323.892ZM797.433 323.546C798.14 323.115 798.364 322.192 797.933 321.485C797.502 320.777 796.579 320.553 795.872 320.984L797.433 323.546ZM800.774 317.811C800.091 318.28 799.918 319.214 800.387 319.897C800.856 320.58 801.789 320.753 802.472 320.284L800.774 317.811ZM807.323 316.753C807.979 316.247 808.101 315.305 807.595 314.649C807.089 313.993 806.147 313.871 805.491 314.377L807.323 316.753ZM810.01 310.689C809.383 311.23 809.313 312.178 809.854 312.805C810.396 313.432 811.343 313.502 811.97 312.96L810.01 310.689ZM816.401 308.919C816.997 308.344 817.015 307.394 816.44 306.798C815.865 306.201 814.915 306.184 814.319 306.758L816.401 308.919ZM818.408 302.598C817.844 303.204 817.878 304.153 818.484 304.718C819.09 305.282 820.039 305.248 820.604 304.642L818.408 302.598ZM824.57 300.146C825.102 299.51 825.017 298.564 824.382 298.033C823.746 297.502 822.8 297.586 822.269 298.222L824.57 300.146ZM825.896 293.647C825.398 294.309 825.531 295.249 826.194 295.747C826.856 296.244 827.796 296.111 828.294 295.449L825.896 293.647ZM831.771 290.568C832.234 289.881 832.053 288.949 831.367 288.485C830.68 288.022 829.748 288.203 829.284 288.889L831.771 290.568ZM832.434 283.966C832.005 284.674 832.231 285.596 832.94 286.026C833.648 286.455 834.57 286.229 835 285.52L832.434 283.966ZM837.981 280.324C838.376 279.596 838.106 278.685 837.378 278.29C836.65 277.895 835.739 278.165 835.344 278.893L837.981 280.324ZM838.016 273.688C837.655 274.434 837.966 275.331 838.711 275.693C839.457 276.054 840.354 275.743 840.716 274.998L838.016 273.688ZM843.207 269.556C843.536 268.795 843.185 267.913 842.425 267.584C841.664 267.256 840.781 267.606 840.453 268.367L843.207 269.556ZM842.658 262.943C842.362 263.717 842.75 264.584 843.524 264.88C844.297 265.176 845.164 264.788 845.46 264.014L842.658 262.943ZM847.478 258.385C847.742 257.6 847.319 256.749 846.534 256.486C845.748 256.222 844.898 256.645 844.634 257.43L847.478 258.385ZM846.386 251.841C846.154 252.636 846.611 253.469 847.406 253.701C848.201 253.933 849.034 253.477 849.266 252.681L846.386 251.841ZM850.827 246.914C851.028 246.11 850.54 245.296 849.736 245.095C848.932 244.894 848.118 245.383 847.917 246.186L850.827 246.914ZM849.23 240.472C849.06 241.283 849.579 242.078 850.39 242.248C851.201 242.419 851.996 241.899 852.166 241.088L849.23 240.472ZM853.284 235.213C853.424 234.397 852.875 233.622 852.058 233.482C851.241 233.343 850.466 233.892 850.327 234.708L853.284 235.213ZM851.206 228.906C851.097 229.727 851.675 230.481 852.496 230.59C853.318 230.698 854.071 230.121 854.18 229.299L851.206 228.906ZM854.851 223.356C854.928 222.531 854.322 221.8 853.497 221.723C852.673 221.646 851.941 222.252 851.864 223.076L854.851 223.356ZM852.296 217.233C852.251 218.06 852.886 218.767 853.713 218.811C854.54 218.856 855.247 218.222 855.291 217.394L852.296 217.233ZM855.49 211.431C855.5 210.603 854.837 209.923 854.008 209.913C853.18 209.903 852.5 210.566 852.49 211.395L855.49 211.431ZM852.429 205.529C852.457 206.357 853.151 207.005 853.979 206.977C854.807 206.949 855.455 206.255 855.427 205.427L852.429 205.529ZM855.292 199.598C855.292 198.769 854.62 198.098 853.792 198.098C852.963 198.098 852.292 198.769 852.292 199.598H855.292ZM852.292 193.699C852.292 194.528 852.963 195.199 853.792 195.199C854.62 195.199 855.292 194.528 855.292 193.699H852.292ZM855.292 187.801C855.292 186.972 854.62 186.301 853.792 186.301C852.963 186.301 852.292 186.972 852.292 187.801H855.292ZM852.292 181.902C852.292 182.731 852.963 183.402 853.792 183.402C854.62 183.402 855.292 182.731 855.292 181.902H852.292ZM855.292 176.004C855.292 175.176 854.62 174.504 853.792 174.504C852.963 174.504 852.292 175.176 852.292 176.004H855.292ZM852.292 170.106C852.292 170.934 852.963 171.606 853.792 171.606C854.62 171.606 855.292 170.934 855.292 170.106H852.292ZM855.292 164.207C855.292 163.379 854.62 162.707 853.792 162.707C852.963 162.707 852.292 163.379 852.292 164.207H855.292ZM852.292 158.309C852.292 159.137 852.963 159.809 853.792 159.809C854.62 159.809 855.292 159.137 855.292 158.309H852.292ZM855.292 152.41C855.292 151.582 854.62 150.91 853.792 150.91C852.963 150.91 852.292 151.582 852.292 152.41H855.292ZM852.292 146.512C852.292 147.34 852.963 148.012 853.792 148.012C854.62 148.012 855.292 147.34 855.292 146.512H852.292ZM855.292 140.613C855.292 139.785 854.62 139.113 853.792 139.113C852.963 139.113 852.292 139.785 852.292 140.613H855.292ZM852.292 134.715C852.292 135.543 852.963 136.215 853.792 136.215C854.62 136.215 855.292 135.543 855.292 134.715H852.292ZM855.292 128.816C855.292 127.988 854.62 127.316 853.792 127.316C852.963 127.316 852.292 127.988 852.292 128.816H855.292ZM852.292 122.918C852.292 123.746 852.963 124.418 853.792 124.418C854.62 124.418 855.292 123.746 855.292 122.918H852.292ZM855.292 117.02C855.292 116.191 854.62 115.52 853.792 115.52C852.963 115.52 852.292 116.191 852.292 117.02H855.292ZM852.292 111.121C852.292 111.95 852.963 112.621 853.792 112.621C854.62 112.621 855.292 111.95 855.292 111.121H852.292ZM855.292 105.223C855.292 104.394 854.62 103.723 853.792 103.723C852.963 103.723 852.292 104.394 852.292 105.223H855.292ZM852.292 99.3243C852.292 100.153 852.963 100.824 853.792 100.824C854.62 100.824 855.292 100.153 855.292 99.3243H852.292ZM855.292 93.4258C855.292 92.5974 854.62 91.9258 853.792 91.9258C852.963 91.9258 852.292 92.5974 852.292 93.4258H855.292ZM852.292 87.5274C852.292 88.3558 852.963 89.0274 853.792 89.0274C854.62 89.0274 855.292 88.3558 855.292 87.5274H852.292ZM855.292 81.6289C855.292 80.8005 854.62 80.1289 853.792 80.1289C852.963 80.1289 852.292 80.8005 852.292 81.6289H855.292ZM852.292 75.7305C852.292 76.5589 852.963 77.2305 853.792 77.2305C854.62 77.2305 855.292 76.5589 855.292 75.7305H852.292ZM855.292 69.8321C855.292 69.0037 854.62 68.3321 853.792 68.3321C852.963 68.3321 852.292 69.0037 852.292 69.8321H855.292ZM852.292 63.9336C852.292 64.7621 852.963 65.4336 853.792 65.4336C854.62 65.4336 855.292 64.7621 855.292 63.9336H852.292ZM855.292 58.0352C855.292 57.2068 854.62 56.5352 853.792 56.5352C852.963 56.5352 852.292 57.2068 852.292 58.0352H855.292ZM852.292 52.1368C852.292 52.9652 852.963 53.6368 853.792 53.6368C854.62 53.6368 855.292 52.9652 855.292 52.1368H852.292ZM855.292 46.2383C855.292 45.4099 854.62 44.7383 853.792 44.7383C852.963 44.7383 852.292 45.4099 852.292 46.2383H855.292ZM852.292 40.3399C852.292 41.1683 852.963 41.8399 853.792 41.8399C854.62 41.8399 855.292 41.1683 855.292 40.3399H852.292ZM855.292 34.4414C855.292 33.613 854.62 32.9414 853.792 32.9414C852.963 32.9414 852.292 33.613 852.292 34.4414H855.292ZM852.292 28.543C852.292 29.3714 852.963 30.043 853.792 30.043C854.62 30.043 855.292 29.3714 855.292 28.543H852.292ZM855.292 22.6446C855.292 21.8162 854.62 21.1446 853.792 21.1446C852.963 21.1446 852.292 21.8162 852.292 22.6446H855.292ZM852.292 16.7461C852.292 17.5746 852.963 18.2461 853.792 18.2461C854.62 18.2461 855.292 17.5746 855.292 16.7461H852.292ZM855.292 10.8477C855.292 10.0193 854.62 9.3477 853.792 9.3477C852.963 9.3477 852.292 10.0193 852.292 10.8477H855.292ZM852.292 4.94927C852.292 5.7777 852.963 6.44927 853.792 6.44927C854.62 6.44927 855.292 5.7777 855.292 4.94927H852.292ZM1.97775 341.491C2.94966 341.505 3.92675 341.519 4.90898 341.534L4.95317 338.534C3.97104 338.52 2.99405 338.505 2.02225 338.491L1.97775 341.491ZM10.8634 341.621C12.8684 341.65 14.8935 341.679 16.9381 341.709L16.9811 338.709C14.9367 338.68 12.9118 338.65 10.907 338.621L10.8634 341.621ZM23.049 341.796C25.0091 341.823 26.9861 341.851 28.9796 341.879L29.0215 338.879C27.0282 338.852 25.0513 338.824 23.0914 338.796L23.049 341.796ZM35.0091 341.963C37.0352 341.991 39.0773 342.019 41.1351 342.047L41.176 339.047C39.1183 339.019 37.0764 338.991 35.0505 338.963L35.0091 341.963ZM47.1191 342.128C49.0998 342.154 51.0943 342.181 53.1022 342.208L53.1421 339.208C51.1343 339.181 49.14 339.155 47.1595 339.128L47.1191 342.128ZM59.1657 342.288C61.1944 342.315 63.236 342.341 65.2903 342.368L65.3292 339.368C63.2751 339.341 61.2336 339.315 59.2051 339.288L59.1657 342.288ZM71.2302 342.444C73.2215 342.47 75.2242 342.495 77.2379 342.521L77.2759 339.521C75.2623 339.496 73.2598 339.47 71.2686 339.445L71.2302 342.444ZM83.3117 342.597C85.3299 342.623 87.3586 342.648 89.3976 342.673L89.4347 339.673C87.3959 339.648 85.3673 339.623 83.3492 339.598L83.3117 342.597ZM95.3577 342.746C97.3538 342.771 99.3593 342.795 101.374 342.82L101.41 339.82C99.3957 339.795 97.3904 339.771 95.3943 339.747L95.3577 342.746ZM107.445 342.892C109.462 342.917 111.488 342.941 113.523 342.965L113.559 339.965C111.524 339.941 109.498 339.917 107.48 339.893L107.445 342.892ZM119.493 343.034C121.49 343.058 123.496 343.081 125.508 343.104L125.543 340.104C123.53 340.081 121.525 340.058 119.528 340.035L119.493 343.034ZM131.569 343.173C133.592 343.196 135.622 343.219 137.659 343.242L137.693 340.242C135.656 340.22 133.626 340.197 131.604 340.174L131.569 343.173ZM143.632 343.309C145.629 343.331 147.633 343.353 149.643 343.375L149.676 340.375C147.666 340.353 145.663 340.331 143.665 340.309L143.632 343.309ZM155.692 343.441C157.714 343.463 159.742 343.484 161.776 343.506L161.808 340.506C159.775 340.484 157.746 340.463 155.724 340.441L155.692 343.441ZM167.775 343.57C169.771 343.591 171.773 343.611 173.781 343.632L173.812 340.632C171.805 340.612 169.803 340.591 167.806 340.57L167.775 343.57ZM179.817 343.694C181.834 343.715 183.856 343.736 185.882 343.756L185.913 340.756C183.886 340.736 181.864 340.715 179.848 340.695L179.817 343.694ZM191.919 343.817C193.916 343.836 195.916 343.856 197.921 343.876L197.95 340.876C195.946 340.856 193.945 340.837 191.949 340.817L191.919 343.817ZM203.947 343.935C205.959 343.954 207.976 343.973 209.996 343.993L210.025 340.993C208.005 340.973 205.988 340.954 203.976 340.935L203.947 343.935ZM216.064 344.05C218.061 344.069 220.061 344.087 222.064 344.106L222.091 341.106C220.088 341.087 218.089 341.069 216.092 341.05L216.064 344.05ZM228.082 344.161C230.091 344.179 232.104 344.197 234.119 344.215L234.146 341.215C232.131 341.197 230.119 341.179 228.109 341.161L228.082 344.161ZM240.172 344.269C242.181 344.286 244.192 344.304 246.206 344.321L246.232 341.321C244.218 341.304 242.207 341.286 240.199 341.269L240.172 344.269ZM252.221 344.372C254.229 344.389 256.238 344.406 258.25 344.423L258.275 341.423C256.263 341.406 254.254 341.39 252.247 341.373L252.221 344.372ZM264.29 344.473C266.306 344.489 268.323 344.506 270.342 344.522L270.366 341.522C268.347 341.506 266.33 341.489 264.315 341.473L264.29 344.473ZM276.36 344.569C278.367 344.585 280.376 344.601 282.386 344.616L282.409 341.616C280.399 341.601 278.391 341.585 276.384 341.569L276.36 344.569ZM288.419 344.662C290.431 344.677 292.444 344.692 294.458 344.707L294.48 341.707C292.466 341.692 290.453 341.677 288.441 341.662L288.419 344.662ZM300.495 344.751C302.504 344.765 304.513 344.779 306.523 344.793L306.544 341.793C304.534 341.779 302.525 341.765 300.517 341.751L300.495 344.751ZM312.553 344.835C314.564 344.849 316.575 344.862 318.586 344.876L318.606 341.876C316.595 341.863 314.584 341.849 312.574 341.835L312.553 344.835ZM324.621 344.915C326.632 344.929 328.644 344.941 330.655 344.954L330.674 341.954C328.663 341.941 326.652 341.929 324.64 341.916L324.621 344.915ZM336.689 344.992C338.7 345.004 340.711 345.016 342.721 345.028L342.739 342.028C340.729 342.016 338.718 342.004 336.708 341.992L336.689 344.992ZM348.75 345.063C350.761 345.075 352.77 345.086 354.779 345.097L354.795 342.097C352.787 342.086 350.778 342.075 348.768 342.063L348.75 345.063ZM360.821 345.13C362.835 345.141 364.847 345.151 366.858 345.162L366.873 342.162C364.862 342.151 362.85 342.141 360.837 342.13L360.821 345.13ZM372.887 345.192C374.896 345.202 376.903 345.212 378.909 345.221L378.923 342.221C376.917 342.212 374.911 342.202 372.902 342.192L372.887 345.192ZM384.945 345.249C386.962 345.258 388.978 345.267 390.991 345.276L391.004 342.276C388.991 342.267 386.976 342.258 384.958 342.249L384.945 345.249ZM397.026 345.301C399.036 345.309 401.044 345.317 403.049 345.325L403.06 342.325C401.055 342.317 399.048 342.309 397.039 342.301L397.026 345.301ZM409.058 345.348C411.08 345.355 413.1 345.362 415.118 345.369L415.128 342.369C413.111 342.362 411.091 342.355 409.068 342.348L409.058 345.348ZM421.163 345.389C423.175 345.395 425.185 345.401 427.191 345.407L427.2 342.407C425.194 342.401 423.185 342.395 421.173 342.389L421.163 345.389ZM433.201 345.424C435.215 345.429 437.226 345.434 439.234 345.439L439.241 342.439C437.234 342.434 435.223 342.429 433.209 342.424L433.201 345.424ZM445.294 345.453C447.311 345.457 449.324 345.461 451.333 345.465L451.338 342.465C449.33 342.461 447.317 342.457 445.301 342.453L445.294 345.453ZM457.347 345.475C459.349 345.478 461.346 345.481 463.339 345.484L463.343 342.484C461.35 342.481 459.353 342.478 457.352 342.475L457.347 345.475ZM469.419 345.49C471.441 345.492 473.458 345.494 475.471 345.496L475.473 342.496C473.461 342.494 471.444 342.492 469.422 342.49L469.419 345.49ZM481.493 345.499C483.495 345.499 485.492 345.5 487.484 345.5L487.484 342.5C485.493 342.5 483.496 342.499 481.494 342.499L481.493 345.499ZM493.537 345.499C495.566 345.499 497.588 345.498 499.605 345.496L499.603 342.496C497.587 342.498 495.565 342.499 493.537 342.499L493.537 345.499ZM505.636 345.492C507.64 345.49 509.638 345.487 511.63 345.485L511.626 342.485C509.634 342.487 507.637 342.49 505.633 342.492L505.636 345.492ZM517.653 345.475C519.688 345.472 521.716 345.468 523.737 345.464L523.731 342.464C521.71 342.468 519.683 342.472 517.648 342.475L517.653 345.475ZM529.777 345.45C531.783 345.444 533.781 345.439 535.771 345.433L535.763 342.433C533.773 342.439 531.775 342.444 529.769 342.45L529.777 345.45ZM541.772 345.414C543.814 345.407 545.847 345.4 547.871 345.392L547.859 342.392C545.836 342.4 543.803 342.407 541.762 342.414L541.772 345.414ZM553.916 345.367C555.922 345.358 557.919 345.349 559.907 345.34L559.892 342.34C557.905 342.349 555.909 342.358 553.903 342.367L553.916 345.367ZM565.902 345.309C567.949 345.298 569.985 345.287 572.01 345.275L571.993 342.275C569.968 342.287 567.932 342.298 565.886 342.309L565.902 345.309ZM578.053 345.237C580.057 345.224 582.049 345.211 584.03 345.197L584.009 342.197C582.029 342.211 580.037 342.224 578.034 342.237L578.053 345.237ZM590.051 345.152C592.1 345.137 594.135 345.12 596.157 345.103L596.132 342.103C594.11 342.12 592.076 342.137 590.028 342.152L590.051 345.152ZM602.184 345.051C604.179 345.033 606.161 345.014 608.129 344.995L608.1 341.995C606.132 342.014 604.151 342.033 602.156 342.051L602.184 345.051ZM614.222 344.933C616.266 344.911 618.293 344.889 620.304 344.866L620.27 341.866C618.259 341.889 616.233 341.911 614.191 341.933L614.222 344.933ZM626.289 344.794C628.298 344.77 630.29 344.744 632.264 344.718L632.224 341.718C630.251 341.744 628.26 341.77 626.252 341.795L626.289 344.794ZM638.403 344.633C640.429 344.604 642.436 344.575 644.423 344.544L644.377 341.544C642.391 341.575 640.385 341.605 638.36 341.634L638.403 344.633ZM650.322 344.45C652.404 344.415 654.462 344.38 656.496 344.343L656.442 341.344C654.41 341.38 652.353 341.416 650.273 341.45L650.322 344.45ZM662.539 344.231C664.529 344.192 666.494 344.153 668.433 344.113L668.371 341.113C666.433 341.154 664.47 341.193 662.481 341.231L662.539 344.231ZM674.604 343.979C676.647 343.933 678.659 343.885 680.64 343.837L680.566 340.838C678.588 340.886 676.577 340.933 674.536 340.98L674.604 343.979ZM686.529 343.686C688.637 343.63 690.705 343.573 692.733 343.514L692.645 340.515C690.62 340.574 688.554 340.632 686.45 340.688L686.529 343.686ZM698.696 343.332C700.76 343.267 702.778 343.199 704.748 343.13L704.643 340.132C702.676 340.201 700.661 340.268 698.601 340.334L698.696 343.332ZM710.828 342.905C712.861 342.826 714.836 342.745 716.752 342.662L716.622 339.664C714.71 339.748 712.74 339.829 710.711 339.908L710.828 342.905ZM722.918 342.376C724.971 342.274 726.943 342.17 728.834 342.063L728.664 339.067C726.781 339.174 724.816 339.278 722.769 339.379L722.918 342.376ZM734.968 341.685C735.936 341.62 736.876 341.554 737.789 341.487L737.569 338.495C736.663 338.561 735.729 338.627 734.767 338.691L734.968 341.685ZM737.789 341.487C738.804 341.412 739.811 341.329 740.81 341.238L740.538 338.251C739.556 338.34 738.567 338.422 737.569 338.495L737.789 341.487ZM746.707 340.594C748.725 340.336 750.708 340.044 752.657 339.718L752.162 336.759C750.252 337.078 748.307 337.365 746.327 337.618L746.707 340.594ZM758.53 338.613C760.5 338.2 762.433 337.752 764.33 337.27L763.59 334.362C761.735 334.834 759.844 335.273 757.915 335.676L758.53 338.613ZM770.112 335.66C772.052 335.073 773.951 334.448 775.81 333.787L774.806 330.96C772.991 331.605 771.137 332.215 769.242 332.789L770.112 335.66ZM781.4 331.646C783.266 330.878 785.09 330.073 786.87 329.232L785.59 326.519C783.855 327.338 782.078 328.123 780.258 328.872L781.4 331.646ZM792.219 326.534C794.003 325.574 795.74 324.578 797.433 323.546L795.872 320.984C794.225 321.988 792.534 322.958 790.798 323.892L792.219 326.534ZM802.472 320.284C804.137 319.141 805.753 317.963 807.323 316.753L805.491 314.377C803.964 315.554 802.393 316.7 800.774 317.811L802.472 320.284ZM811.97 312.96C813.495 311.644 814.972 310.296 816.401 308.919L814.319 306.758C812.929 308.098 811.493 309.409 810.01 310.689L811.97 312.96ZM820.604 304.642C821.974 303.17 823.296 301.67 824.57 300.146L822.269 298.222C821.028 299.705 819.742 301.165 818.408 302.598L820.604 304.642ZM828.294 295.449C829.501 293.843 830.659 292.215 831.771 290.568L829.284 288.889C828.2 290.495 827.071 292.082 825.896 293.647L828.294 295.449ZM835 285.52C836.04 283.803 837.033 282.07 837.981 280.324L835.344 278.893C834.419 280.598 833.449 282.29 832.434 283.966L835 285.52ZM840.716 274.998C841.591 273.192 842.421 271.377 843.207 269.556L840.453 268.367C839.684 270.148 838.872 271.923 838.016 273.688L840.716 274.998ZM845.46 264.014C846.177 262.139 846.849 260.261 847.478 258.385L844.634 257.43C844.017 259.268 843.359 261.107 842.658 262.943L845.46 264.014ZM849.266 252.681C849.829 250.751 850.349 248.828 850.827 246.914L847.917 246.186C847.448 248.063 846.938 249.949 846.386 251.841L849.266 252.681ZM852.166 241.088C852.581 239.112 852.953 237.152 853.284 235.213L850.327 234.708C850.002 236.611 849.637 238.534 849.23 240.472L852.166 241.088ZM854.18 229.299C854.446 227.287 854.669 225.303 854.851 223.356L851.864 223.076C851.686 224.986 851.467 226.931 851.206 228.906L854.18 229.299ZM855.291 217.394C855.401 215.354 855.466 213.364 855.49 211.431L852.49 211.395C852.467 213.285 852.404 215.234 852.296 217.233L855.291 217.394ZM855.427 205.427C855.393 204.416 855.346 203.426 855.289 202.458L852.294 202.636C852.35 203.578 852.395 204.543 852.429 205.529L855.427 205.427ZM855.292 202.547V199.598H852.292V202.547H855.292ZM855.292 193.699V187.801H852.292V193.699H855.292ZM855.292 181.902V176.004H852.292V181.902H855.292ZM855.292 170.106V164.207H852.292V170.106H855.292ZM855.292 158.309V152.41H852.292V158.309H855.292ZM855.292 146.512V140.613H852.292V146.512H855.292ZM855.292 134.715V128.816H852.292V134.715H855.292ZM855.292 122.918V117.02H852.292V122.918H855.292ZM855.292 111.121V105.223H852.292V111.121H855.292ZM855.292 99.3243V93.4258H852.292V99.3243H855.292ZM855.292 87.5274V81.6289H852.292V87.5274H855.292ZM855.292 75.7305V69.8321H852.292V75.7305H855.292ZM855.292 63.9336V58.0352H852.292V63.9336H855.292ZM855.292 52.1368V46.2383H852.292V52.1368H855.292ZM855.292 40.3399V34.4414H852.292V40.3399H855.292ZM855.292 28.543V22.6446H852.292V28.543H855.292ZM855.292 16.7461V10.8477H852.292V16.7461H855.292ZM855.292 4.94927V2H852.292V4.94927H855.292Z" fill="#C1C1C1"/>
</svg>
